<?xml version="1.0" encoding="UTF-8"?>
<svg id="Layer_2" data-name="Layer 2" xmlns="http://www.w3.org/2000/svg" viewBox="0 0 189.76 155.02">
  <defs>
    <style>
      .cls-1 {
        fill: #184225;
        stroke-width: 0px;
      }
    </style>
  </defs>
  <g id="Layer_2-2" data-name="Layer 2">
    <g>
      <path class="cls-1" d="m152.42,2.49c-3.06,18.43-1.34,37.41,5.02,54.98,1.32,3.65,3.42,9.75-1.15,12.09-1.31.67-.71,2.87.76,2.8,7.04-.36,14.3-.78,20.76-3.88,5.55-2.67,10.23-7.41,11.52-13.58,1.35-6.48-.67-13.17-4.14-18.65-3.78-5.97-9.09-10.63-13.81-15.81-5.58-6.12-10.64-12.7-16.46-18.61-1.36-1.38-3.48.74-2.12,2.12,4.79,4.87,9.07,10.19,13.55,15.34s9.28,9.44,13.44,14.57c3.9,4.82,6.99,10.62,6.96,16.96s-3.37,10.94-8.45,13.97c-6.38,3.81-14.03,4.19-21.27,4.55l.76,2.8c3.62-1.86,4.69-6.17,4.12-9.92-.36-2.37-1.27-4.59-2.06-6.83s-1.5-4.52-2.14-6.81c-2.59-9.35-3.88-19.03-3.82-28.73.03-5.55.49-11.09,1.4-16.56.31-1.89-2.58-2.7-2.89-.8h0Z"/>
      <path class="cls-1" d="m180.36,29.03c2.66-3.67,3.52-8.48,2.4-12.86l-1.38,1.38c2.17.86,3.76,3.26,3.31,5.62-.22,1.13-.82,2.22-1.74,2.92-1.17.89-2.74,1.01-4.15,1.13-.61.05-1.12.48-1.12,1.12,0,.57.52,1.18,1.12,1.12,1.98-.17,4-.41,5.61-1.69,1.3-1.02,2.2-2.56,2.49-4.18.63-3.6-1.61-6.91-4.91-8.22-.83-.33-1.58.63-1.38,1.38.98,3.84.14,7.93-2.18,11.13-.36.49-.08,1.25.4,1.54.57.33,1.18.09,1.54-.4h0Z"/>
      <path class="cls-1" d="m112.64,8.49c2.47,4.84,3.52,10.3,3.07,15.71s-2.58,10.31-5.33,14.86c-5.5,9.11-13.21,16.86-16.83,27.05-.87,2.46-1.45,5.01-1.66,7.61-.18,2.26-.32,5.13,1.01,7.1,3.38,5.01,8.76-1.47,11.77-3.46,8.33-5.49,18.57-6.5,27.93-3.29,5.52,1.89,11.39,3.72,16.62,0,4.6-3.27,6.44-9.33,4.37-14.6-.28-.71-1.02-1.35-1.85-1.05-6.93,2.52-12.79,7.4-16.44,13.82-.95,1.68,1.64,3.2,2.59,1.51,3.25-5.72,8.45-10.19,14.64-12.45l-1.85-1.05c1.76,4.48.19,9.54-4.09,11.91-4.65,2.57-9.7.13-14.27-1.36-8.73-2.84-18.42-1.9-26.53,2.38-1.99,1.05-3.85,2.32-5.59,3.75-1.03.85-4.03,4.22-5.04,1.82-.86-2.06-.4-5.03-.02-7.16.44-2.38,1.18-4.72,2.16-6.93,4.1-9.38,11.51-16.72,16.5-25.56,2.71-4.8,4.59-10.02,4.93-15.56s-.92-11.48-3.53-16.58c-.88-1.72-3.47-.2-2.59,1.51h0Z"/>
      <path class="cls-1" d="m117.01,24.47c.93.7,2.23.41,3.1-.25s1.22-1.63,1.77-2.53c.42-.68,1-.91,1.7-.94.96-.04,1.78.17,2.73.44l-.67-1.65c-.37.72-.71,1.18-1.31,1.73-.5.46-1.13.86-1.84,1.17-.13.05-.63.22-.9.29-.4.1-.67.15-.98.17-.86.07-1.41,0-2.21-.23-1.39-.41-1.98,1.76-.6,2.17,3.7,1.1,8.03-.72,9.78-4.18.33-.65.06-1.45-.67-1.65-1.83-.52-4.11-.97-5.78.23-.89.64-1.31,1.54-1.83,2.47-.06.1-.11.2-.18.3,0,0-.21.28-.13.19-.14.16-.24.23-.35.3-.35.2.17-.1-.18.09-.04.02-.18.05-.04.03-.06,0-.11,0-.17,0-.08,0-.07,0,.02,0,.17.08-.11-.08-.13-.1-.49-.37-1.26-.08-1.54.4-.34.58-.08,1.17.4,1.54h0Z"/>
      <path class="cls-1" d="m110.36,43.29l8.44-.99-1.08-.83c.17.81,0,1.79-.41,2.57-.45.83-1.16,1.54-1.97,1.84-1.76.66-3.88-.07-4.84-1.72-.73-1.25-2.68-.12-1.94,1.14,1.46,2.49,4.78,3.77,7.5,2.7s4.44-4.18,3.83-7.13c-.09-.43-.62-.88-1.08-.83l-8.44.99c-.6.07-1.12.47-1.12,1.12,0,.55.52,1.2,1.12,1.12h0Z"/>
      <path class="cls-1" d="m114.95,7.71c-.33-.15-.65-.31-.95-.51-.17-.11-.33-.22-.49-.33s.19.17-.07-.06c-.07-.06-.14-.12-.2-.17-.27-.24-.52-.49-.76-.76-.06-.07-.12-.14-.17-.21-.22-.26.11.17-.09-.11-.1-.15-.21-.29-.3-.45-.19-.3-.37-.62-.52-.95-.01-.02-.12-.28-.07-.16s-.05-.14-.06-.17c-.06-.17-.12-.34-.17-.51s-.1-.35-.14-.52c-.02-.1-.04-.21-.06-.32,0-.03-.05-.31-.03-.17s-.02-.18-.02-.17c0-.09-.01-.18-.02-.27-.01-.2-.01-.4,0-.59l-2.1.57c.51.8,1.25,1.36,2.07,1.82.34.19.7.36,1.04.56.17.1.33.21.5.31.28.17-.1-.11.14.11.07.06.14.13.21.2s.14.14.2.21c-.08-.1.01.03.05.08.03.05.05.1.08.15.12.19-.05-.16,0-.03.09.29.18.58.24.88.04.21,0-.12,0,.02,0,.07.01.15.02.22,0,.14-.01.29-.01.43,0-.27.01-.08-.01.02-.01.04-.08.25-.01.07s-.02.02-.04.05l.1-.13c-.08.08-.06.06.08-.06-.5.35-.73.99-.4,1.54.29.49,1.04.75,1.54.4,1.43-.99,1.17-3.3.4-4.65-.5-.88-1.38-1.47-2.25-1.94-.41-.22-.84-.43-1.23-.69-.1-.06-.2-.13-.29-.2.11.09-.05-.05-.09-.08-.24-.22-.25-.23-.38-.43-.6-.94-2.07-.57-2.1.57-.07,3.48,2.05,6.94,5.24,8.37.55.25,1.21.16,1.54-.4.28-.48.15-1.29-.4-1.54h0Z"/>
      <path class="cls-1" d="m71.4,78.91c.64-5.55,1.05-11.2,2.16-16.68.94-4.65,2.63-9.38,6.48-12.41s8.95-4.52,12.09-8.67,4.02-9.69,5.46-14.71,4.83-11.66,11.2-10.97l-1.3-2.26c-2.88,4.01-.69,8.73-1.45,13.16-.89,5.22-6.35,4.17-9.82,2.21-1.68-.95-3.2,1.64-1.51,2.59,4.12,2.32,10.46,3.59,13.28-1.35,1.24-2.17,1.29-4.8,1.1-7.23-.2-2.66-.67-5.56.99-7.87.74-1.02-.29-2.15-1.3-2.26-5.44-.59-10.06,3.56-12.26,8.18-2.47,5.19-2.72,11.15-5.31,16.29-1.23,2.44-2.96,4.32-5.26,5.79s-4.64,2.52-6.8,4.04c-4.32,3.04-6.75,7.6-8.03,12.64-1.62,6.34-1.98,13.04-2.73,19.52-.22,1.91,2.78,1.9,3,0h0Z"/>
      <path class="cls-1" d="m19.8,27.43c-6.47-.71-13.01-.77-19.07,1.9-.91.4-.92,1.74-.3,2.36,3.11,3.13,7.99,4.18,12.07,2.45,2.16-.92,3.89-2.72,6.12-3.45,2.53-.83,5.13.39,7.2,1.78,8.41,5.63,13,15.72,15.37,25.22,1.56,6.25,2.41,12.69,2.94,19.1.1,1.17,1.19,1.83,2.26,1.3,5.55-2.76,6.57-9.29,8.17-14.64.87-2.91,2.09-5.65,4.65-7.44,2.16-1.51,4.68-2.64,6.24-4.86,1.95-2.77,1.07-6.05,1.51-9.17.38-2.7,1.48-5.27,3.06-7.48s3.89-4.19,6.43-5.42c2.76-1.33,5.86-1.57,8.82-2.19,3.37-.7,6.47-2.08,8.73-4.76s3.53-5.82,4.78-8.98c.29-.73-.32-1.68-1.05-1.85-4.03-.89-7.99.61-11.02,3.28-3.21,2.83-5.09,6.84-6.85,10.65-.8,1.74,1.78,3.27,2.59,1.51,2.57-5.57,6.86-14.24,14.49-12.56l-1.05-1.85c-1.05,2.66-2.16,5.44-4.01,7.66-2.04,2.45-4.76,3.46-7.81,4.07s-6,.97-8.81,2.26c-2.48,1.14-4.72,2.88-6.5,4.94s-3.19,4.51-4.04,7.14c-.41,1.26-.66,2.56-.8,3.87-.17,1.62.05,3.26-.14,4.88-.33,2.84-2.72,4.1-4.91,5.48-2.46,1.55-4.42,3.38-5.7,6.03-2.58,5.33-2.29,13.83-8.29,16.82l2.26,1.3c-.92-11.19-2.6-22.82-7.84-32.9-2.28-4.39-5.29-8.5-9.04-11.75s-8.83-6.19-13.87-3.76c-2.4,1.16-4.32,3.22-7.07,3.55-2.49.3-5-.59-6.76-2.36l-.3,2.36c5.51-2.42,11.71-2.13,17.55-1.49,1.92.21,1.9-2.79,0-3h0Z"/>
      <path class="cls-1" d="m72.07,30.22c-1.95-3.29-2.52-7.24-1.57-10.95l-1.65.67c1.43,1.1,3.04,2.34,3.46,4.2s-.99,3.19-2.17,4.3c-1.05,1,.54,2.59,1.59,1.59,1.79-1.69,3.26-3.71,2.79-6.3s-2.6-4.25-4.53-5.73c-.58-.45-1.49.04-1.65.67-1.1,4.27-.45,8.88,1.8,12.68.74,1.24,2.68.11,1.94-1.14h0Z"/>
      <path class="cls-1" d="m41.98,48.03c-.02-.08-.03-.16-.04-.24.01.09.01.07,0-.07-.01-.16-.02-.33-.03-.49s0-.33.01-.49c0-.05.04-.46.02-.32.04-.29.1-.57.18-.85.04-.16.09-.32.15-.47.03-.08.06-.16.09-.23.05-.13.06-.15.03-.07.13-.3.29-.59.47-.87.14-.22.31-.46.41-.57.21-.25.44-.49.69-.71s.36-.29.66-.49l-1.69-.97c.02,1.69.12,3.4.05,5.09-.03.64-.12,1.3-.47,1.8-.13.18-.3.35-.51.47-.12.07-.11.07-.31.11.1,0,.07,0-.07,0-.08,0-.17,0-.25-.01-.61-.05-1.12.55-1.12,1.12,0,.65.52,1.07,1.12,1.12,2.04.17,3.48-1.75,3.75-3.57.15-.98.11-1.97.1-2.97-.01-1.06-.03-2.12-.04-3.18-.01-.83-.96-1.44-1.69-.97-2.82,1.78-4.26,5.16-3.66,8.43.11.6.84.94,1.38.79.63-.17.9-.78.79-1.38h0Z"/>
      <path class="cls-1" d="m34.8,38.21c-2.82-.69-5.84-.5-8.53.6-.66.27-1.08.96-.67,1.65,1.16,1.97,2.7,4.08,5.23,4.12,1.12.02,2.18-.49,2.89-1.35s1.08-1.85,1.42-2.87c.19-.58-.22-1.23-.79-1.38-.61-.17-1.19.21-1.38.79-.25.77-.4,1.26-.88,1.93.09-.12-.03.03-.07.08-.06.07-.13.13-.19.2l-.08.07c.07-.05.08-.05.01,0-.08.05-.16.1-.23.15-.09.06-.17.08-.4.14-.18.04-.02.01-.12.01s-.2,0-.3,0c-.21,0-.61-.14-.85-.26-.37-.2-.53-.32-.84-.63-.6-.61-1.02-1.34-1.48-2.11l-.67,1.65c2.36-.97,4.89-1.2,7.33-.6.59.14,1.22-.19,1.38-.79s-.19-1.24-.79-1.38h0Z"/>
      <path class="cls-1" d="m95.06,129.99c-1.78,1.26-4.13.41-5.46-1.16-1.62-1.91-1.91-4.7-2.12-7.1-.27-3.17-.5-6.35-.74-9.52s-.31-6.25-.8-9.31c-.39-2.45-1.57-4.91-3.94-5.98-2.12-.96-4.26-.26-5.99,1.12-1.45,1.16-2.66,2.93-4.42,3.65-2.45,1-4.94-1.15-6.4-2.89-2.73-3.23-6.06-9.04-11.24-7.23-5.86,2.04-1.46,9.47.03,12.94,4.08,9.53,7,21.32.51,30.52-3.57,5.06-9.56,6.73-15.26,8.18-3.23.82-6.45,1.78-9.73,2.38-2.92.54-6.03.67-8.69-.86-1.68-.96-3.19,1.63-1.51,2.59,5,2.88,10.83,1.31,16.05-.03,5.49-1.4,11.48-2.44,16.32-5.55,9.07-5.81,10.92-17.53,8.78-27.36-.63-2.91-1.58-5.74-2.67-8.5s-2.51-5.27-3.42-8.01c-.31-.92-.72-2.28,0-3.11s1.98-.52,2.82-.15c2.32,1.01,3.77,3.61,5.27,5.52,1.59,2.01,3.57,3.87,6.12,4.53,2.37.62,4.52-.11,6.37-1.62,1.36-1.11,2.72-3.18,4.53-3.56,2.92-.61,3.57,3.58,3.73,5.54.31,3.63.57,7.26.85,10.9.25,3.25.3,6.61,1,9.8.58,2.68,1.89,5.25,4.29,6.72,2.19,1.34,5.09,1.64,7.26.11,1.56-1.11.07-3.71-1.51-2.59h0Z"/>
      <path class="cls-1" d="m70.51,102.5l-3.09,5.76c-.42.78.11,1.65.97,1.69,1.88.1,3.7-.8,4.83-2.29s1.4-3.5.8-5.21c-.2-.55-.78-.98-1.38-.79-.55.18-1,.79-.79,1.38.06.17.11.33.15.5.02.09.04.19.06.28.03.13-.01-.19,0,.03.01.18.02.35.02.53,0,.08,0,.16-.01.24,0,.04-.05.34,0,.08-.07.35-.15.68-.28,1.01.06-.15.02-.05-.02.04-.04.09-.09.17-.13.25-.09.15-.18.3-.29.44.09-.13.04-.05-.03.03-.05.06-.1.12-.16.17-.13.13-.27.26-.42.38.12-.1.05-.04-.04.02-.06.04-.13.09-.2.13-.16.1-.33.18-.49.27-.19.09.09-.03-.03.01-.07.02-.15.05-.22.08-.16.05-.33.1-.5.13-.08.02-.15.03-.23.04.27-.04-.01,0-.07,0-.19.01-.37.01-.56,0l.97,1.69,3.09-5.76c.28-.52.15-1.25-.4-1.54s-1.24-.15-1.54.4h0Z"/>
      <path class="cls-1" d="m95.88,132.38c2.07-.62,3.34-2.41,4.34-4.22.47-.85.91-1.72,1.5-2.49-.1.13.13-.15.12-.15.08-.09.16-.18.24-.27.15-.16.3-.31.47-.44.04-.04.09-.07.13-.11-.06.05-.06.05,0,0,.1-.07.19-.13.29-.19.28-.17.3-.17.53-.24l-1.42-1.08c-.03.95-.05,1.91-.08,2.86-.02.82.04,1.61-.22,2.31-.06.15-.23.39-.38.5-.23.18-.42.25-.76.33-.1.02-.2.05-.3.06.14-.02-.07,0-.1,0-.24,0-.47,0-.71-.01-.45-.04-.9-.14-1.35-.23-.59-.12-1.22.17-1.38.79-.15.56.19,1.26.79,1.38,1.17.24,2.35.45,3.53.21,1.01-.21,1.96-.81,2.5-1.7s.59-1.99.62-3.01c.03-1.17.06-2.33.1-3.5.02-.7-.74-1.31-1.42-1.08-2.06.68-3.29,2.46-4.28,4.28-.23.42-.46.85-.7,1.27-.12.21-.25.42-.39.62-.07.1-.14.2-.21.3-.02.02-.21.28-.11.16-.28.35-.59.69-.94.97-.06.05-.06.05,0,0-.05.03-.09.07-.14.1-.1.06-.19.12-.3.18-.26.14-.23.13-.54.22-.58.17-.95.79-.79,1.38s.8.96,1.38.79h0Z"/>
      <path class="cls-1" d="m49.41,140.34c-2.26-1.13-4.27-2.49-6.09-4.13l-.8,1.92c.76-.04,1.52-.09,2.28-.05.4.02.56.03.92.1s.7.16,1.03.3c-.19-.08.13.07.19.1.13.07.26.15.39.23.06.04.11.08.17.12.15.11-.18-.17.05.04.1.09.2.18.29.28.06.06.11.12.16.19.11.13-.09-.13,0,0,.08.12.16.24.23.38.03.06.06.12.08.18-.04-.1-.04-.1,0,0,.02.08.05.16.07.24.01.05.05.28.02.04.08.58.46,1.15,1.12,1.12.54-.02,1.21-.5,1.12-1.12-.22-1.65-1.25-3-2.75-3.73-1.68-.81-3.55-.78-5.38-.67-.46.03-.85.26-1.03.69-.17.4-.1.93.23,1.23,1.97,1.78,4.17,3.3,6.54,4.48.53.26,1.24.16,1.54-.4.27-.51.16-1.26-.4-1.54h0Z"/>
      <path class="cls-1" d="m36.39,143.49c-.13-.01-.1-.01.06.01-.05,0-.1-.02-.16-.03-.1-.02-.21-.04-.31-.06-.2-.05-.41-.11-.61-.17-.09-.03-.22-.06-.3-.11.15.06.16.07.05.02-.05-.02-.1-.04-.14-.07-.19-.09-.37-.19-.55-.3s-.37-.22-.52-.36c.23.22-.03-.03-.08-.07-.08-.07-.16-.14-.23-.21-.15-.15-.3-.3-.43-.46-.03-.04-.07-.08-.1-.12.09.12.11.14.03.04-.06-.09-.12-.17-.18-.26l-.97,1.69c1.07-.12,2.18-.26,3.25-.11-.11-.01-.12-.02,0,0,.06.01.13.02.19.04.12.02.24.05.35.08.04.01.28.12.31.11-.04.02-.19-.1-.05-.01.05.03.09.05.14.08.16.1-.04-.02-.03-.03,0,0,.11.12.11.12-.03,0-.17-.2-.03-.02.07.09-.04-.18-.03-.07,0,.04.04.21.02.03s-.01,0-.01.03c.01.15.03-.23,0-.09-.02.11.12-.23,0-.05-.33.49-.11,1.27.4,1.54.57.3,1.19.12,1.54-.4.44-.66.38-1.61-.06-2.25s-1.14-1.01-1.88-1.2c-1.39-.34-2.82-.21-4.23-.06-.41.05-.75.19-.97.56-.19.33-.22.81,0,1.14,1.24,1.86,3.19,3.01,5.4,3.27.59.07,1.15-.57,1.12-1.12-.03-.67-.5-1.05-1.12-1.12h0Z"/>
      <path class="cls-1" d="m19.98,145.13c-1.98-1.61-4.94-1.9-7.07-.36-.99.71-1.7,1.67-2.42,2.64-.6.81-1.22,1.59-2.11,2.05-.44.23-.64.81-.52,1.27.14.5.59.79,1.08.83,2.37.17,4.9.34,7.16-.56,1.97-.78,3.63-2.2,4.3-4.26.45-1.38-1.72-1.97-2.17-.6s-1.79,2.39-3.16,2.85c-1.97.66-4.1.47-6.13.32l.57,2.1c1.86-.96,2.69-2.89,4.11-4.3,1.24-1.23,3.34-1.53,4.76-.37.47.38,1.13.46,1.59,0,.4-.4.47-1.21,0-1.59h0Z"/>
      <path class="cls-1" d="m26.87,146.68c-2.06,1.68-2.75,4.41-3.28,6.9-.12.57.17,1.24.79,1.38.57.13,1.24-.17,1.38-.79.07-.3.07.03-.22.3l-.5.29h.01c-.2,0-.4,0-.6,0-.47-.18-.56-.37-.37-.18.09.09.19.17.3.23.25.15.54.21.83.2.44-.02.84-.23,1.19-.48.32-.22.62-.47.93-.7.13-.1.27-.18.4-.27.06-.04.24-.11-.04.01.16-.07.32-.13.47-.22,2-1.14,2.33-4.01.61-5.56-.44-.39-1.17-.46-1.59,0-.39.43-.47,1.17,0,1.59.08.08.16.16.24.24.05.06.04.05-.03-.04.03.04.05.08.08.12.03.05.16.35.08.12.03.09.06.18.09.27.02.07.03.33.02.08,0,.1,0,.19,0,.29,0,.25.06-.14,0,.08-.03.09-.05.18-.07.27-.06.21.08-.14-.06.11-.02.03-.17.27-.09.15.08-.11-.13.14-.15.16-.04.04-.26.19-.05.06-.08.05-.15.1-.23.15-.1.05-.11.06-.03.02.14-.06.07-.02-.22.09-.12.05-.23.12-.33.19-.28.19-.54.4-.81.6-.13.1-.26.19-.39.29-.06.04-.12.08-.18.12-.04.02-.29.14-.08.06.1-.04.11-.05.04-.02.09-.02.17-.03.26,0,.1,0,.19.03.28.09.17.14.21.17.13.1.05-.1-.52-.36-.58-.37-.72-.18-1.33.29-1.48.98l2.17.6c.25-1.16.51-2.32.94-3.43,0-.02.08-.21.03-.09-.06.14.06-.13.06-.13.06-.13.12-.26.19-.39.13-.25.27-.5.43-.74.08-.12.16-.23.24-.35-.06.08-.07.09,0,0,.05-.06.1-.12.15-.18.2-.22.42-.43.65-.62.46-.37.42-1.21,0-1.59-.49-.45-1.1-.4-1.59,0h0Z"/>
      <path class="cls-1" d="m87.32,117.7c-.02-.06-.04-.12-.05-.18.02.15.02.17.02.04-.05.3.02-.02.03-.09.03-.08.02-.06-.03.06.03-.06.06-.11.09-.16.03-.05.07-.11.11-.16-.08.1-.08.1,0,0,.33-.36.71-.67,1.1-.98.92-.73,1.84-1.47,2.76-2.2l-1.88-.5c.05.16.1.31.13.47.02.08.03.16.05.24.03.13-.01-.18,0,.04.02.33.02.65-.01.98.03-.26-.01.06-.02.09-.01.06-.03.13-.04.19-.04.16-.09.32-.14.47-.01.03-.14.31-.03.1-.03.06-.06.12-.09.18-.08.16-.17.31-.27.46-.04.06-.09.13-.14.19.09-.13.03-.05-.03.03-.1.12-.21.23-.33.34-.06.05-.12.1-.18.16-.16.14.08-.05-.03.03-.13.09-.26.18-.39.26s-.28.14-.42.22c-.12.06.17-.06-.03.02-.07.03-.15.05-.22.08-.15.05-.3.09-.45.12-.08.02-.15.03-.23.04.2-.04.03,0-.07,0-.58.05-1.15.48-1.12,1.12.03.56.5,1.18,1.12,1.12,1.79-.16,3.37-1.05,4.41-2.52s1.25-3.39.71-5.04c-.12-.38-.39-.68-.79-.79-.42-.12-.77.03-1.09.29-1.05.83-2.1,1.66-3.14,2.5-.98.79-1.92,2.02-1.47,3.35.19.56.78.98,1.38.79.55-.18.99-.79.79-1.38h0Z"/>
      <path class="cls-1" d="m108.93,131.98c4.52-6.46,7.45-14,8.55-21.8.55-3.91.7-7.86.34-11.79-.18-1.96-.46-3.91-.87-5.84-.35-1.68-1.33-3.72-1.14-5.45.2-1.87,2.91-1.17,4.11-.83,1.79.51,3.45,1.48,4.86,2.69,3.13,2.7,5.07,6.41,6.55,10.21,1.64,4.22,3.01,8.56,4.49,12.84.74,2.15,1.48,4.29,2.22,6.44.66,1.93,1.41,3.86,1.8,5.87s.23,4.18-1.5,5.51c-1.61,1.24-3.73,1.6-5.6,2.28-1.97.72-3.88,1.74-5,3.59-1.04,1.72-1.21,3.82-.18,5.58.44.75,1.31.88,2.05.54,4.15-1.9,7.86-4.67,9.08-9.28.49-1.87-2.4-2.67-2.89-.8-1.02,3.85-4.27,5.92-7.7,7.48l2.05.54c-1.01-1.73.68-3.45,2.12-4.21,1.72-.91,3.69-1.25,5.47-2.01s3.42-1.86,4.35-3.59,1.03-3.6.78-5.46c-.28-2.13-1.02-4.14-1.71-6.16-.79-2.3-1.58-4.6-2.37-6.9-1.55-4.5-2.97-9.06-4.73-13.48-1.57-3.95-3.56-7.82-6.72-10.73-2.72-2.51-6.65-4.7-10.48-4.3-1.89.2-3.52,1.33-3.93,3.26s.32,3.76.77,5.57c.99,4.03,1.41,8.18,1.31,12.34-.24,9.42-3.26,18.66-8.67,26.38-1.11,1.58,1.49,3.09,2.59,1.51h0Z"/>
      <path class="cls-1" d="m116.25,116.3c.02-1.73,1.05-3.32,2.6-4.09,1.85-.92,3.83-.18,5.55.68,3.3,1.64,7.43,4.06,11.02,1.67,2.97-1.98,3.12-5.64,4.08-8.74,1.09-3.53,4.12-6.07,7.7-6.81l-1.9-1.45c.32,5.13-3.21,9.94-8.22,11.13-1.88.45-1.08,3.34.8,2.89,6.23-1.48,10.82-7.62,10.42-14.03-.06-1.02-.9-1.65-1.9-1.45-3,.62-5.71,2.32-7.6,4.73s-2.36,5.24-3.19,8.15c-.35,1.21-.84,2.52-2.01,3.16-1.51.82-3.45.21-4.9-.44-3.08-1.38-5.97-3.51-9.53-2.78s-5.87,3.96-5.92,7.37c-.03,1.93,2.97,1.93,3,0h0Z"/>
      <path class="cls-1" d="m156.66,127.27c-4.44-2.9-6.85-8.13-6.39-13.38.11-1.26-1.33-1.69-2.26-1.3l-.09.04c-.72.31-.95,1.44-.54,2.05.57.84,1.27.7,2.11.76l-1.3-.74v.02c.19-.68.37-1.37.55-2.05l-.09.04c-1.52.65-.53,2.67.76,2.8,3.14.32,4.24,4.49,4.59,7.09.28,2.09.13,4.24.74,6.29.48,1.63,1.4,3.11,2.61,4.3,5.11,5.02,13.39,4.72,19.34,1.5,6.53-3.53,10.44-10.43,10.14-17.84-.16-3.87-1.3-7.68-3.17-11.07-1.55-2.8-3.64-5.27-5.74-7.67-2.87-3.27-5.81-6.46-8.7-9.7s-5.88-6.45-10.37-7.12c-1.23-.18-2.41.98-1.69,2.2,8.1,13.81,7.39,31.55-2.19,44.45-1.15,1.55,1.45,3.05,2.59,1.51,7.82-10.54,10.14-24.51,6.62-37.1-1.02-3.63-2.52-7.13-4.43-10.38l-1.69,2.2c3.7.56,6.18,3.09,8.53,5.77s5.05,5.4,7.45,8.22c4.2,4.93,8.44,9.67,9.56,16.31,1.17,6.89-1.72,13.67-7.78,17.26-5.03,2.98-13.18,3.71-17.11-1.54-1.23-1.65-1.42-3.62-1.54-5.62s-.42-3.97-1.08-5.91c-1.12-3.28-3.03-5.79-6.66-6.16l.76,2.8.09-.04c.72-.31.95-1.44.54-2.05-.57-.84-1.27-.7-2.11-.76l1.3.74v-.02c-.19.68-.37,1.37-.55,2.05l.09-.04-2.26-1.3c-.55,6.31,2.6,12.53,7.88,15.97,1.62,1.06,3.13-1.54,1.51-2.59h0Z"/>
      <path class="cls-1" d="m170.28,90.07c-1.3-3.12-2.59-6.24-3.89-9.36l-.52.92c1.49-.24,2.98.6,3.59,1.97.71,1.6-.05,3.42-.68,4.91-.16.37-.11.8.27,1.03.31.18.87.11,1.03-.27.89-2.09,1.72-4.38.62-6.55-.98-1.94-3.13-2.87-5.22-2.53-.37.06-.67.58-.52.92,1.3,3.12,2.59,6.24,3.89,9.36.16.37.5.64.92.52.35-.1.68-.55.52-.92h0Z"/>
    </g>
  </g>
</svg>