<?xml version="1.0" encoding="UTF-8"?><svg id="Layer_2" xmlns="http://www.w3.org/2000/svg" viewBox="0 0 110.8 198.74"><defs><style>.cls-1{fill:#6a8f52;}.cls-1,.cls-2,.cls-3{isolation:isolate;}.cls-1,.cls-2,.cls-3,.cls-4{stroke-width:0px;}.cls-2{fill:#546c3d;}.cls-3,.cls-4{fill:#4f571f;}</style></defs><g id="Layer_1-2"><path class="cls-1" d="m69.45,195.32s6.39-154.9-18.54-167.73c0,0,25.65-14.78,22.08,165.98l-3.54,1.75Z"/><path class="cls-1" d="m55.69,195.93s2.95-108.44-8.55-117.41c0,0,11.82-10.35,10.18,116.19l-1.63,1.22Z"/><path class="cls-2" d="m83.59,192.91s-5.97-72.62-.5-98.48,22.38-39.29,22.38-39.29c0,0-18.78,25.7-19.82,55.43-.28,7.97,2.41,80.86,2.41,80.86l-4.48,1.49Z"/><path class="cls-2" d="m44.18,196.66s3.2-98.7.27-133.86-11.99-53.41-11.99-53.41c0,0,10.06,34.94,10.62,75.34.15,10.83-1.29,109.9-1.29,109.9l2.4,2.03Z"/><path class="cls-1" d="m31.42,196.08s6.78-40.68,0-56.32-22.42-33.38-22.95-38.07c0,0,27.12,28.16,27.12,42.24s3.13,51.63-4.17,52.15Z"/><path class="cls-4" d="m79.2,193.21s-3.91-83.26,0-115.29S92.13,9.61,92.43,0c0,0-15.64,57.64-15.64,86.47s-1.8,105.68,2.41,106.75Z"/><path class="cls-3" d="m60.65,196.34s5.1-135.82-14.81-147.06c0,0,20.48-12.96,17.63,145.53l-2.83,1.53Z"/><path class="cls-4" d="m37.54,196.13s-5.97-72.62-.5-98.48,22.38-39.29,22.38-39.29c0,0-18.78,25.7-19.82,55.43-.28,7.97,2.41,80.86,2.41,80.86l-4.48,1.49Z"/><path class="cls-2" d="m50.85,198.74s-5.83-83.32-17.13-114.01C22.42,54.04,1.93,20.42,0,10.99c0,0,34.74,53.07,39.02,81.57,4.28,28.5,18.72,104.05,11.83,106.17Z"/><path class="cls-1" d="m78.85,192.91s6.8-48.72,13.34-66.67c6.54-17.95,17.28-37.63,18.61-43.14,0,0-18.01,31.07-21.35,47.73-3.34,16.67-13.54,60.85-10.61,62.08Z"/></g></svg>