<?xml version="1.0" encoding="UTF-8"?><svg id="Layer_2" xmlns="http://www.w3.org/2000/svg" viewBox="0 0 95.56 197.06"><defs><style>.cls-1,.cls-2,.cls-3{isolation:isolate;}.cls-1,.cls-2,.cls-3,.cls-4,.cls-5{stroke-width:0px;}.cls-1,.cls-5{fill:#664841;}.cls-2{fill:#4f571f;}.cls-3,.cls-4{fill:#bd98b6;}</style></defs><g id="Layer_1-2"><path class="cls-2" d="m39.82,197.06s3.91-25.13,5.03-39.09,29.6-54.73,29.6-67.57,3.35-55.84,1.12-60.87-6.7-16.19-6.7-16.19l-2.18-1.09s4.47,11.17,6.7,16.19-1.12,48.02-1.12,60.87-28.48,53.61-29.6,67.57-5.03,39.09-5.03,39.09l2.18,1.09Z"/><path class="cls-2" d="m48.85,142.64s10.03-4.63,13.46-7.14c2.44-1.79,5.53-2.75,2.61-.44-2.92,2.31-15.21,9.19-15.85,8.78s-.22-1.2-.22-1.2Z"/><path class="cls-2" d="m45.57,148.8s10.53-3.35,14.24-5.41c2.64-1.47,5.83-2.04,2.65-.11-3.18,1.93-16.23,7.24-16.81,6.74s-.07-1.22-.07-1.22Z"/><path class="cls-2" d="m51.2,135.56s10.53-3.35,14.24-5.41c2.64-1.47,5.83-2.04,2.65-.11-3.18,1.93-16.23,7.24-16.81,6.74s-.07-1.22-.07-1.22Z"/><path class="cls-2" d="m48.41,143.53s-5.57-9.54-8.39-12.71c-2.01-2.26-3.26-5.25-.69-2.56s10.6,14.26,10.25,14.93-1.18.34-1.18.34Z"/><path class="cls-2" d="m44.61,150.98s10.9-1.79,14.87-3.29c2.83-1.07,6.07-1.17,2.64.28-3.43,1.45-17.11,4.8-17.61,4.23s.1-1.22.1-1.22Z"/><path class="cls-2" d="m74.23,72.46s-6.27-5.29-12.67-2.95-10.09,6.15-5.9,6.03,18.7-.61,18.7-.61l-.12-2.46Z"/><path class="cls-2" d="m74.11,70.61s2.95.25,6.52-.12,9.1-2.46,9.47-.37-2.71,6.15-8.61,4.8-9.35-.86-9.35-.86l1.97-3.44Z"/><path class="cls-2" d="m74.48,58.07s-8.61-2.71-11.19-2.71-3.57,3.57.74,5.9,10.82,0,10.82,0l-.37-3.2Z"/><path class="cls-2" d="m75.22,62.37s10.7-.25,12.79-2.71-1.48-4.67-4.55-3.32-8.61,3.32-8.61,3.32l.37,2.71Z"/><path class="cls-2" d="m75.09,52.41s12.3.49,13.53-3.32-10.7-2.71-12.67-1.72-.86,5.04-.86,5.04Z"/><path class="cls-2" d="m75.71,49.34s-7.87-4.18-11.81-2.83,1.23,6.27,6.52,6.15,7.26-2.58,7.26-2.58l-1.97-.74Z"/><path class="cls-2" d="m75.22,36.91s7.38-5.29,12.18-3.2-4.67,7.13-12.18,3.2Z"/><path class="cls-2" d="m74.97,39.01s-5.17,2.34-9.22,3.69-8.86.37-5.04-3.69,9.47-2.95,13.65-1.72.61,1.72.61,1.72Z"/><path class="cls-2" d="m74.11,27.07s1.72-8.12,8.12-8.12,11.07,7.75-7.87,9.47l-.25-1.35Z"/><path class="cls-2" d="m74.35,29.29s-6.89,4.8-13.78,3.69-6.52-5.29,1.23-5.29,13.65-.98,13.65-.98l-1.11,2.58Z"/><path class="cls-3" d="m67.1,9.86s-6.15.12-2.46,4.92,3.07,2.58,4.67,0,.86-4.8-2.21-4.92Z"/><path class="cls-4" d="m73.37,9.49s-.12-.49,4.55-.86,1.48,6.76-3.2,5.78-1.35-4.92-1.35-4.92Z"/><path class="cls-4" d="m72.88,6.41s3.44-4.92,7.26-2.95-2.34,9.47-7.26,2.95Z"/><path class="cls-4" d="m69.8,4.57s-3.32-3.2.37-4.06,6.4-.74,5.53,1.23-3.07,5.41-5.9,2.83Z"/><path class="cls-4" d="m68.08,6.53s-.98-5.78-4.18-3.81-5.53,3.94-1.97,4.67,6.03,1.23,6.15-.86Z"/><path class="cls-4" d="m65.13,8.99s.74,4.55-3.07,3.94-5.9-3.32-2.58-4.06,5.78-1.72,5.66.12Z"/><path class="cls-1" d="m70.17,7.27s-1.23-1.97,1.11-1.48,2.09,4.06-1.11,1.48Z"/><path class="cls-5" d="m68.85,8.21s3.05-.2,1.94,1.27-1.57-.29-1.94-1.27Z"/><path class="cls-5" d="m66.24,8.01c1.75-.58,3.32.37,1.84,1.23s-3.69-.61-1.84-1.23Z"/><path class="cls-5" d="m69.19,7.4c-1.14-.88-1.72-1.72-.25-1.72s1.35,2.58.25,1.72Z"/><path class="cls-5" d="m71.53,10.59s2.96.06,1.84-1.55-3.73,1.55-1.84,1.55Z"/><path class="cls-2" d="m47.89,144.47s-9.38-5.83-13.36-7.32c-2.83-1.06-5.34-3.11-1.8-1.94,3.54,1.17,16.04,7.65,16.04,8.41s-.88.85-.88.85Z"/><path class="cls-2" d="m45.82,150.26s-9.78-5.14-13.07-7.81c-2.35-1.91-5.39-3.03-2.59-.57,2.8,2.46,14.72,9.96,15.38,9.57s.29-1.19.29-1.19Z"/><path class="cls-2" d="m51.86,136.48s-9.38-5.83-13.36-7.32c-2.83-1.06-5.34-3.11-1.8-1.94,3.54,1.17,16.04,7.65,16.04,8.41s-.88.85-.88.85Z"/><path class="cls-2" d="m37.4,196.26s-2.91-18.68-3.74-29.06-22-40.69-22-50.24-2.49-41.52-.83-45.25,4.98-12.04,4.98-12.04l1.62-.81s-3.32,8.3-4.98,12.04.83,35.71.83,45.25,21.17,39.86,22,50.24,3.74,29.06,3.74,29.06l-1.62.81Z"/><path class="cls-2" d="m31.4,157.16s6.97-4.34,9.93-5.44c2.11-.79,3.97-2.31,1.34-1.44s-11.93,5.69-11.93,6.25.66.63.66.63Z"/><path class="cls-2" d="m30.69,155.79s-7.46-3.44-10-5.31c-1.82-1.33-4.11-2.04-1.94-.33,2.17,1.72,11.31,6.83,11.78,6.53s.17-.89.17-.89Z"/><path class="cls-2" d="m33.13,160.37s-7.83-2.49-10.58-4.02c-1.97-1.09-4.34-1.52-1.97-.08,2.37,1.44,12.07,5.38,12.5,5.01s.05-.91.05-.91Z"/><path class="cls-2" d="m28.94,150.53s-7.83-2.49-10.58-4.02c-1.97-1.09-4.34-1.52-1.97-.08s12.07,5.38,12.5,5.01.05-.91.05-.91Z"/><path class="cls-2" d="m31.01,156.46s4.14-7.09,6.24-9.45c1.5-1.68,2.43-3.9.51-1.9s-7.88,10.6-7.62,11.1.87.25.87.25Z"/><path class="cls-2" d="m33.84,162s-8.11-1.33-11.06-2.45c-2.1-.8-4.51-.87-1.96.2,2.55,1.08,12.72,3.57,13.09,3.15s-.08-.91-.08-.91Z"/><path class="cls-2" d="m32.94,161.46s7.27-3.82,9.72-5.81c1.74-1.42,4-2.25,1.92-.42s-10.94,7.4-11.43,7.12-.21-.88-.21-.88Z"/><path class="cls-2" d="m28.45,151.21s6.97-4.34,9.93-5.44c2.11-.79,3.97-2.31,1.34-1.44s-11.93,5.69-11.93,6.25.66.63.66.63Z"/><path class="cls-2" d="m11.82,103.61s4.66-3.93,9.42-2.19,7.5,4.57,4.39,4.48c-3.11-.09-13.9-.46-13.9-.46l.09-1.83Z"/><path class="cls-2" d="m11.91,102.24s-2.19.18-4.85-.09-6.77-1.83-7.04-.27,2.01,4.57,6.4,3.57,6.95-.64,6.95-.64l-1.46-2.56Z"/><path class="cls-2" d="m11.64,92.92s6.4-2.01,8.32-2.01,2.65,2.65-.55,4.39-8.05,0-8.05,0l.27-2.38Z"/><path class="cls-2" d="m11.09,96.12s-7.96-.18-9.51-2.01,1.1-3.47,3.38-2.47,6.4,2.47,6.4,2.47l-.27,2.01Z"/><path class="cls-2" d="m11.18,88.71s-9.14.37-10.06-2.47c-.91-2.83,7.96-2.01,9.42-1.28s.64,3.75.64,3.75Z"/><path class="cls-2" d="m10.72,86.42s5.85-3.11,8.78-2.1-.91,4.66-4.85,4.57-5.4-1.92-5.4-1.92l1.46-.55Z"/><path class="cls-2" d="m11.09,77.19s-5.49-3.93-9.05-2.38,3.47,5.3,9.05,2.38Z"/><path class="cls-2" d="m11.27,78.74s3.84,1.74,6.86,2.74,6.58.27,3.75-2.74c-2.83-3.02-7.04-2.19-10.15-1.28s-.46,1.28-.46,1.28Z"/><path class="cls-2" d="m11.91,69.87s-1.28-6.04-6.04-6.04-8.23,5.76,5.85,7.04l.18-1.01Z"/><path class="cls-2" d="m11.73,71.52s5.12,3.57,10.24,2.74c5.12-.82,4.85-3.93-.91-3.93-5.76,0-10.15-.73-10.15-.73l.82,1.92Z"/><path class="cls-3" d="m17.12,57.07s4.57.09,1.83,3.66c-2.74,3.57-2.29,1.92-3.47,0s-.64-3.57,1.65-3.66Z"/><path class="cls-4" d="m12.46,56.8s.09-.37-3.38-.64-1.1,5.03,2.38,4.3c3.47-.73,1.01-3.66,1.01-3.66Z"/><path class="cls-4" d="m12.82,54.51s-2.56-3.66-5.4-2.19,1.74,7.04,5.4,2.19Z"/><path class="cls-4" d="m15.11,53.14s2.47-2.38-.27-3.02-4.76-.55-4.11.91,2.29,4.02,4.39,2.1Z"/><path class="cls-4" d="m16.39,54.6s.73-4.3,3.11-2.83,4.11,2.93,1.46,3.47c-2.65.55-4.48.91-4.57-.64Z"/><path class="cls-4" d="m18.58,56.43s-.55,3.38,2.29,2.93,4.39-2.47,1.92-3.02-4.3-1.28-4.21.09Z"/><path class="cls-1" d="m14.84,55.15s.91-1.46-.82-1.1-1.55,3.02.82,1.1Z"/><path class="cls-5" d="m15.82,55.85s-2.26-.15-1.44.95,1.17-.21,1.44-.95Z"/><path class="cls-5" d="m17.76,55.7c-1.3-.43-2.47.27-1.37.91s2.74-.46,1.37-.91Z"/><path class="cls-5" d="m15.57,55.24c.84-.66,1.28-1.28.18-1.28s-1.01,1.92-.18,1.28Z"/><path class="cls-5" d="m13.83,57.62s-2.2.04-1.37-1.15,2.77,1.15,1.37,1.15Z"/><path class="cls-2" d="m43.25,195.85s-1.74-11.2-2.24-17.42c-.5-6.22-13.19-24.39-13.19-30.11,0-5.72-1.49-24.89-.5-27.13s2.99-7.22,2.99-7.22l.97-.49s-1.99,4.98-2.99,7.22.5,21.4.5,27.13c0,5.72,12.69,23.89,13.19,30.11s2.24,17.42,2.24,17.42l-.97.49Z"/><path class="cls-2" d="m39.65,172.41s4.18-2.6,5.95-3.26c1.26-.47,2.38-1.39.8-.87s-7.15,3.41-7.15,3.75.39.38.39.38Z"/><path class="cls-2" d="m39.22,171.59s-4.47-2.06-6-3.18c-1.09-.8-2.47-1.22-1.16-.2s6.78,4.1,7.06,3.91.1-.54.1-.54Z"/><path class="cls-2" d="m40.68,174.34s-4.69-1.49-6.34-2.41c-1.18-.66-2.6-.91-1.18-.05s7.23,3.22,7.49,3.01.03-.54.03-.54Z"/><path class="cls-2" d="m38.18,168.44s-4.69-1.49-6.34-2.41c-1.18-.66-2.6-.91-1.18-.05s7.23,3.22,7.49,3.01.03-.54.03-.54Z"/><path class="cls-2" d="m39.42,171.99s2.48-4.25,3.74-5.67c.9-1.01,1.45-2.34.31-1.14s-4.73,6.36-4.57,6.66.52.15.52.15Z"/><path class="cls-2" d="m41.11,175.31s-4.86-.8-6.63-1.47c-1.26-.48-2.7-.52-1.17.12s7.62,2.14,7.85,1.89-.05-.54-.05-.54Z"/><path class="cls-2" d="m40.57,174.99s4.36-2.29,5.83-3.48c1.05-.85,2.4-1.35,1.15-.25s-6.56,4.44-6.85,4.27-.13-.53-.13-.53Z"/><path class="cls-2" d="m37.88,168.85s4.18-2.6,5.95-3.26c1.26-.47,2.38-1.39.8-.87s-7.15,3.41-7.15,3.75.39.38.39.38Z"/><path class="cls-2" d="m27.91,140.32s2.8-2.36,5.65-1.32,4.49,2.74,2.63,2.69-8.33-.27-8.33-.27l.05-1.1Z"/><path class="cls-2" d="m27.97,139.49s-1.32.11-2.9-.05-4.06-1.1-4.22-.16,1.21,2.74,3.84,2.14,4.17-.38,4.17-.38l-.88-1.53Z"/><path class="cls-2" d="m27.8,133.9s3.84-1.21,4.99-1.21,1.59,1.59-.33,2.63-4.82,0-4.82,0l.16-1.43Z"/><path class="cls-2" d="m27.47,135.82s-4.77-.11-5.7-1.21.66-2.08,2.03-1.48,3.84,1.48,3.84,1.48l-.16,1.21Z"/><path class="cls-2" d="m27.53,131.38s-5.48.22-6.03-1.48,4.77-1.21,5.65-.77.38,2.25.38,2.25Z"/><path class="cls-2" d="m27.25,130.01s3.51-1.86,5.26-1.26-.55,2.8-2.9,2.74-3.23-1.15-3.23-1.15l.88-.33Z"/><path class="cls-2" d="m27.47,124.48s-3.29-2.36-5.43-1.43,2.08,3.18,5.43,1.43Z"/><path class="cls-2" d="m27.58,125.41s2.3,1.04,4.11,1.64,3.95.16,2.25-1.64-4.22-1.32-6.08-.77-.27.77-.27.77Z"/><path class="cls-2" d="m27.97,120.09s-.77-3.62-3.62-3.62-4.93,3.45,3.51,4.22l.11-.6Z"/><path class="cls-2" d="m27.86,121.08s3.07,2.14,6.14,1.64,2.9-2.36-.55-2.36-6.08-.44-6.08-.44l.49,1.15Z"/><path class="cls-3" d="m31.09,112.42s2.74.05,1.1,2.19-1.37,1.15-2.08,0-.38-2.14.99-2.19Z"/><path class="cls-4" d="m28.3,112.25s.05-.22-2.03-.38-.66,3.01,1.43,2.58.6-2.19.6-2.19Z"/><path class="cls-4" d="m28.51,110.88s-1.53-2.19-3.23-1.32,1.04,4.22,3.23,1.32Z"/><path class="cls-4" d="m29.89,110.06s1.48-1.43-.16-1.81-2.85-.33-2.47.55,1.37,2.41,2.63,1.26Z"/><path class="cls-4" d="m30.65,110.94s.44-2.58,1.86-1.7,2.47,1.75.88,2.08-2.69.55-2.74-.38Z"/><path class="cls-4" d="m31.97,112.03s-.33,2.03,1.37,1.75,2.63-1.48,1.15-1.81-2.58-.77-2.52.05Z"/><path class="cls-1" d="m29.72,111.27s.55-.88-.49-.66-.93,1.81.49.66Z"/><path class="cls-5" d="m30.31,111.69s-1.36-.09-.86.57.7-.13.86-.57Z"/><path class="cls-5" d="m31.47,111.6c-.78-.26-1.48.16-.82.55s1.64-.27.82-.55Z"/><path class="cls-5" d="m30.16,111.32c.51-.39.77-.77.11-.77s-.6,1.15-.11.77Z"/><path class="cls-5" d="m29.12,112.75s-1.32.02-.82-.69,1.66.69.82.69Z"/><path class="cls-2" d="m60.46,196.67s2.23-18.68,2.86-29.06,16.86-40.69,16.86-50.24,1.91-41.52.64-45.25-3.82-12.04-3.82-12.04l-1.24-.81s2.54,8.3,3.82,12.04-.64,35.71-.64,45.25-16.22,39.86-16.86,50.24c-.64,10.38-2.86,29.06-2.86,29.06l1.24.81Z"/><path class="cls-2" d="m65.6,156.21s5.71-3.44,7.67-5.31c1.39-1.33,3.15-2.04,1.49-.33-1.66,1.72-8.66,6.83-9.03,6.53s-.13-.89-.13-.89Z"/><path class="cls-2" d="m63.74,160.79s6-2.49,8.11-4.02c1.51-1.09,3.32-1.52,1.51-.08s-9.25,5.38-9.58,5.01-.04-.91-.04-.91Z"/><path class="cls-2" d="m66.95,150.94s6-2.49,8.11-4.02c1.51-1.09,3.32-1.52,1.51-.08s-9.25,5.38-9.58,5.01-.04-.91-.04-.91Z"/><path class="cls-2" d="m65.36,156.87s-3.17-7.09-4.78-9.45c-1.15-1.68-1.86-3.9-.39-1.9s6.04,10.6,5.84,11.1-.67.25-.67.25Z"/><path class="cls-2" d="m63.19,162.41s6.21-1.33,8.47-2.45c1.61-.8,3.46-.87,1.5.2s-9.75,3.57-10.03,3.15.06-.91.06-.91Z"/><path class="cls-2" d="m80.07,104.03s-3.57-3.93-7.22-2.19c-3.64,1.74-5.75,4.57-3.36,4.48,2.38-.09,10.65-.46,10.65-.46l-.07-1.83Z"/><path class="cls-2" d="m80,102.66s1.68.18,3.71-.09c2.03-.27,5.18-1.83,5.39-.27s-1.54,4.57-4.9,3.57-5.32-.64-5.32-.64l1.12-2.56Z"/><path class="cls-2" d="m80.21,93.33s-4.9-2.01-6.38-2.01-2.03,2.65.42,4.39c2.45,1.74,6.17,0,6.17,0l-.21-2.38Z"/><path class="cls-2" d="m80.63,96.53s6.1-.18,7.29-2.01-.84-3.47-2.59-2.47-4.9,2.47-4.9,2.47l.21,2.01Z"/><path class="cls-2" d="m80.56,89.12s7.01.37,7.71-2.47-6.1-2.01-7.22-1.28-.49,3.75-.49,3.75Z"/><path class="cls-2" d="m80.91,86.84s-4.48-3.11-6.73-2.1.7,4.66,3.71,4.57c3.01-.09,4.13-1.92,4.13-1.92l-1.12-.55Z"/><path class="cls-2" d="m80.63,77.6s4.2-3.93,6.94-2.38-2.66,5.3-6.94,2.38Z"/><path class="cls-2" d="m80.49,79.16s-2.94,1.74-5.25,2.74-5.04.27-2.87-2.74,5.39-2.19,7.78-1.28.35,1.28.35,1.28Z"/><path class="cls-2" d="m80,70.29s.98-6.04,4.62-6.04,6.31,5.76-4.48,7.04l-.14-1.01Z"/><path class="cls-2" d="m80.14,71.93s-3.92,3.57-7.85,2.74-3.71-3.93.7-3.93,7.78-.73,7.78-.73l-.63,1.92Z"/><path class="cls-3" d="m76,57.48s-3.5.09-1.4,3.66,1.75,1.92,2.66,0,.49-3.57-1.26-3.66Z"/><path class="cls-4" d="m79.58,57.21s-.07-.37,2.59-.64.84,5.03-1.82,4.3c-2.66-.73-.77-3.66-.77-3.66Z"/><path class="cls-4" d="m79.29,54.92s1.96-3.66,4.13-2.19c2.17,1.46-1.33,7.04-4.13,2.19Z"/><path class="cls-4" d="m77.54,53.55s-1.89-2.38.21-3.02c2.1-.64,3.64-.55,3.15.91s-1.75,4.02-3.36,2.1Z"/><path class="cls-4" d="m76.56,55.02s-.56-4.3-2.38-2.83-3.15,2.93-1.12,3.47,3.43.91,3.5-.64Z"/><path class="cls-4" d="m74.88,56.84s.42,3.38-1.75,2.93-3.36-2.47-1.47-3.02,3.29-1.28,3.22.09Z"/><path class="cls-1" d="m77.75,55.56s-.7-1.46.63-1.1,1.19,3.02-.63,1.1Z"/><path class="cls-5" d="m77,56.26s1.73-.15,1.1.95-.89-.21-1.1-.95Z"/><path class="cls-5" d="m75.51,56.11c1-.43,1.89.27,1.05.91s-2.1-.46-1.05-.91Z"/><path class="cls-5" d="m77.19,55.66c-.65-.66-.98-1.28-.14-1.28s.77,1.92.14,1.28Z"/><path class="cls-5" d="m78.52,58.03s1.69.04,1.05-1.15-2.13,1.15-1.05,1.15Z"/><path class="cls-2" d="m65.06,157.57s-5.34-4.34-7.61-5.44c-1.61-.79-3.04-2.31-1.03-1.44s9.14,5.69,9.14,6.25-.5.63-.5.63Z"/><path class="cls-2" d="m63.88,161.87s-5.57-3.82-7.45-5.81c-1.34-1.42-3.07-2.25-1.47-.42,1.59,1.83,8.38,7.4,8.76,7.12s.16-.88.16-.88Z"/><path class="cls-2" d="m67.32,151.63s-5.34-4.34-7.61-5.44c-1.61-.79-3.04-2.31-1.03-1.44s9.14,5.69,9.14,6.25-.5.63-.5.63Z"/><path class="cls-2" d="m54.92,195.24s-1.6-16.34-2.06-25.42-12.13-35.59-12.13-43.94-1.37-36.31-.46-39.58,2.75-10.53,2.75-10.53l.89-.71s-1.83,7.26-2.75,10.53.46,31.23.46,39.58,11.68,34.86,12.13,43.94,2.06,25.42,2.06,25.42l-.89.71Z"/><path class="cls-2" d="m51.61,161.04s3.85-3.79,5.48-4.76c1.16-.69,2.19-2.02.74-1.26s-6.58,4.98-6.58,5.47.36.55.36.55Z"/><path class="cls-2" d="m51.22,159.85s-4.11-3.01-5.52-4.64c-1-1.16-2.27-1.79-1.07-.28s6.23,5.98,6.5,5.71.09-.78.09-.78Z"/><path class="cls-2" d="m52.56,163.86s-4.32-2.18-5.84-3.52c-1.08-.96-2.39-1.33-1.09-.07s6.65,4.71,6.89,4.39.03-.79.03-.79Z"/><path class="cls-2" d="m50.25,155.25s-4.32-2.18-5.84-3.52c-1.08-.96-2.39-1.33-1.09-.07s6.65,4.71,6.89,4.39.03-.79.03-.79Z"/><path class="cls-2" d="m51.4,160.43s2.28-6.21,3.44-8.27c.82-1.47,1.34-3.41.28-1.66s-4.35,9.27-4.2,9.71.48.22.48.22Z"/><path class="cls-2" d="m52.96,165.28s-4.47-1.16-6.1-2.14c-1.16-.7-2.49-.76-1.08.18s7.01,3.12,7.22,2.75-.04-.79-.04-.79Z"/><path class="cls-2" d="m52.46,164.81s4.01-3.34,5.36-5.08c.96-1.24,2.21-1.97,1.06-.37s-6.03,6.48-6.3,6.23-.12-.77-.12-.77Z"/><path class="cls-2" d="m49.98,155.85s3.85-3.79,5.48-4.76c1.16-.69,2.19-2.02.74-1.26s-6.58,4.98-6.58,5.47.36.55.36.55Z"/><path class="cls-2" d="m40.81,114.21s2.57-3.44,5.19-1.92,4.13,4,2.42,3.92-7.66-.4-7.66-.4l.05-1.6Z"/><path class="cls-2" d="m40.86,113.01s-1.21.16-2.67-.08-3.73-1.6-3.88-.24,1.11,4,3.53,3.12,3.83-.56,3.83-.56l-.81-2.24Z"/><path class="cls-2" d="m40.71,104.86s3.53-1.76,4.59-1.76,1.46,2.32-.3,3.84-4.44,0-4.44,0l.15-2.08Z"/><path class="cls-2" d="m40.41,107.66s-4.39-.16-5.24-1.76.61-3.04,1.87-2.16,3.53,2.16,3.53,2.16l-.15,1.76Z"/><path class="cls-2" d="m40.46,101.18s-5.04.32-5.55-2.16,4.39-1.76,5.19-1.12.35,3.28.35,3.28Z"/><path class="cls-2" d="m40.21,99.18s3.23-2.72,4.84-1.84-.5,4.08-2.67,4-2.97-1.68-2.97-1.68l.81-.48Z"/><path class="cls-2" d="m40.41,91.1s-3.03-3.44-4.99-2.08,1.92,4.64,4.99,2.08Z"/><path class="cls-2" d="m40.51,92.46s2.12,1.52,3.78,2.4,3.63.24,2.07-2.4-3.88-1.92-5.6-1.12-.25,1.12-.25,1.12Z"/><path class="cls-2" d="m40.86,84.7s-.71-5.28-3.33-5.28-4.54,5.04,3.23,6.16l.1-.88Z"/><path class="cls-2" d="m40.76,86.14s2.82,3.12,5.65,2.4,2.67-3.44-.5-3.44-5.6-.64-5.6-.64l.45,1.68Z"/><path class="cls-3" d="m43.74,73.5s2.52.08,1.01,3.2-1.26,1.68-1.92,0-.35-3.12.91-3.2Z"/><path class="cls-4" d="m41.17,73.26s.05-.32-1.87-.56-.61,4.4,1.31,3.76.55-3.2.55-3.2Z"/><path class="cls-4" d="m41.37,71.26s-1.41-3.2-2.97-1.92.96,6.16,2.97,1.92Z"/><path class="cls-4" d="m42.63,70.06s1.36-2.08-.15-2.64-2.62-.48-2.27.8,1.26,3.52,2.42,1.84Z"/><path class="cls-4" d="m43.33,71.34s.4-3.76,1.71-2.48,2.27,2.56.81,3.04-2.47.8-2.52-.56Z"/><path class="cls-4" d="m44.54,72.94s-.3,2.96,1.26,2.56,2.42-2.16,1.06-2.64-2.37-1.12-2.32.08Z"/><path class="cls-1" d="m42.48,71.82s.5-1.28-.45-.96-.86,2.64.45.96Z"/><path class="cls-5" d="m43.02,72.44s-1.25-.13-.79.83.64-.19.79-.83Z"/><path class="cls-5" d="m44.09,72.3c-.72-.38-1.36.24-.76.8s1.51-.4.76-.8Z"/><path class="cls-5" d="m42.88,71.9c.47-.57.71-1.12.1-1.12s-.55,1.68-.1,1.12Z"/><path class="cls-5" d="m41.92,73.98s-1.22.04-.75-1.01,1.53,1.01.75,1.01Z"/><path class="cls-2" d="m48.93,194.52s2.4-15.44,3.09-24.01,18.18-33.62,18.18-41.5,2.06-34.3.69-37.39-4.12-9.95-4.12-9.95l-1.34-.67s2.74,6.86,4.12,9.95-.69,29.5-.69,37.39-17.49,32.93-18.18,41.5-3.09,24.01-3.09,24.01l1.34.67Z"/><path class="cls-2" d="m54.48,161.1s6.16-2.84,8.27-4.38c1.5-1.1,3.4-1.69,1.61-.27s-9.34,5.65-9.73,5.39-.14-.74-.14-.74Z"/><path class="cls-2" d="m52.47,164.88s6.47-2.06,8.75-3.33c1.62-.9,3.58-1.25,1.63-.07s-9.97,4.45-10.33,4.14-.05-.75-.05-.75Z"/><path class="cls-2" d="m55.92,156.74s6.47-2.06,8.75-3.33c1.62-.9,3.58-1.25,1.63-.07s-9.97,4.45-10.33,4.14-.05-.75-.05-.75Z"/><path class="cls-2" d="m54.21,161.64s-3.42-5.86-5.15-7.81c-1.24-1.39-2.01-3.22-.42-1.57s6.51,8.76,6.3,9.17-.72.21-.72.21Z"/><path class="cls-2" d="m51.87,166.22s6.7-1.1,9.14-2.02c1.74-.66,3.73-.72,1.62.17s-10.51,2.95-10.82,2.6.06-.75.06-.75Z"/><path class="cls-2" d="m70.07,117.99s-3.85-3.25-7.78-1.81-6.19,3.78-3.63,3.7,11.48-.38,11.48-.38l-.08-1.51Z"/><path class="cls-2" d="m70,116.85s1.81.15,4-.08,5.59-1.51,5.82-.23-1.66,3.78-5.29,2.95-5.74-.53-5.74-.53l1.21-2.12Z"/><path class="cls-2" d="m70.22,109.15s-5.29-1.66-6.87-1.66-2.19,2.19.45,3.63,6.65,0,6.65,0l-.23-1.96Z"/><path class="cls-2" d="m70.68,111.79s6.57-.15,7.86-1.66-.91-2.87-2.8-2.04-5.29,2.04-5.29,2.04l.23,1.66Z"/><path class="cls-2" d="m70.6,105.67s7.55.3,8.31-2.04-6.57-1.66-7.78-1.06-.53,3.1-.53,3.1Z"/><path class="cls-2" d="m70.98,103.78s-4.84-2.57-7.25-1.74.76,3.85,4,3.78,4.46-1.59,4.46-1.59l-1.21-.45Z"/><path class="cls-2" d="m70.68,96.15s4.53-3.25,7.48-1.96-2.87,4.38-7.48,1.96Z"/><path class="cls-2" d="m70.52,97.44s-3.17,1.44-5.67,2.27-5.44.23-3.1-2.27,5.82-1.81,8.39-1.06.38,1.06.38,1.06Z"/><path class="cls-2" d="m70,90.11s1.06-4.99,4.99-4.99,6.8,4.76-4.84,5.82l-.15-.83Z"/><path class="cls-2" d="m70.15,91.47s-4.23,2.95-8.46,2.27-4-3.25.76-3.25,8.39-.6,8.39-.6l-.68,1.59Z"/><path class="cls-3" d="m65.69,79.53s-3.78.08-1.51,3.02,1.89,1.59,2.87,0,.53-2.95-1.36-3.02Z"/><path class="cls-4" d="m69.54,79.31s-.08-.3,2.8-.53.91,4.16-1.96,3.55-.83-3.02-.83-3.02Z"/><path class="cls-4" d="m69.24,77.42s2.12-3.02,4.46-1.81-1.44,5.82-4.46,1.81Z"/><path class="cls-4" d="m67.35,76.28s-2.04-1.96.23-2.49,3.93-.45,3.4.76-1.89,3.32-3.63,1.74Z"/><path class="cls-4" d="m66.29,77.49s-.6-3.55-2.57-2.34-3.4,2.42-1.21,2.87,3.7.76,3.78-.53Z"/><path class="cls-4" d="m64.48,79s.45,2.8-1.89,2.42-3.63-2.04-1.59-2.49,3.55-1.06,3.48.08Z"/><path class="cls-1" d="m67.58,77.95s-.76-1.21.68-.91,1.28,2.49-.68.91Z"/><path class="cls-5" d="m66.77,78.52s1.87-.13,1.19.78-.96-.18-1.19-.78Z"/><path class="cls-5" d="m65.16,78.4c1.08-.36,2.04.23,1.13.76s-2.27-.38-1.13-.76Z"/><path class="cls-5" d="m66.97,78.02c-.7-.54-1.06-1.06-.15-1.06s.83,1.59.15,1.06Z"/><path class="cls-5" d="m68.41,79.99s1.82.03,1.13-.95-2.29.95-1.13.95Z"/><path class="cls-2" d="m53.89,162.22s-5.76-3.58-8.21-4.5c-1.74-.65-3.28-1.91-1.11-1.19s9.85,4.7,9.85,5.17-.54.52-.54.52Z"/><path class="cls-2" d="m52.62,165.77s-6.01-3.15-8.03-4.8c-1.44-1.17-3.31-1.86-1.59-.35s9.04,6.12,9.44,5.88.18-.73.18-.73Z"/><path class="cls-2" d="m56.33,157.31s-5.76-3.58-8.21-4.5c-1.74-.65-3.28-1.91-1.11-1.19s9.85,4.7,9.85,5.17-.54.52-.54.52Z"/><path class="cls-2" d="m59.74,194.03s3.84-10.66,5.51-16.68c1.67-6.01,17.59-21.43,18.68-27.05s6.2-24.15,5.65-26.53-1.56-7.65-1.56-7.65l-.86-.66s1.01,5.27,1.56,7.65-4.56,20.92-5.65,26.53c-1.09,5.62-17.01,21.04-18.68,27.05s-5.51,16.68-5.51,16.68l.86.66Z"/><path class="cls-2" d="m67.73,171.71s-3.61-3.35-5.22-4.33c-1.15-.7-2.07-1.81-.62-1s6.37,4.71,6.3,5.04-.46.3-.46.3Z"/><path class="cls-2" d="m68.31,170.99s4.78-1.17,6.49-1.98c1.22-.57,2.65-.73,1.18.03s-7.43,2.73-7.68,2.5,0-.55,0-.55Z"/><path class="cls-2" d="m66.35,173.4s4.89-.57,6.69-1.16c1.28-.42,2.72-.4,1.17.18s-7.71,1.79-7.93,1.52.07-.54.07-.54Z"/><path class="cls-2" d="m69.94,168.09s4.89-.57,6.69-1.16c1.28-.42,2.72-.4,1.17.18s-7.71,1.79-7.93,1.52.07-.54.07-.54Z"/><path class="cls-2" d="m68.04,171.34s-1.63-4.65-2.59-6.27c-.69-1.16-.98-2.57-.08-1.18s3.43,7.14,3.22,7.4-.54.05-.54.05Z"/><path class="cls-2" d="m65.74,174.28s4.92.14,6.79-.18c1.33-.23,2.75,0,1.13.34s-7.89.65-8.06.36.15-.52.15-.52Z"/><path class="cls-2" d="m66.34,174.06s-3.84-3.08-5.06-4.53c-.86-1.03-2.1-1.78-1.08-.47s5.59,5.61,5.91,5.49.23-.5.23-.5Z"/><path class="cls-2" d="m70.15,168.55s-3.61-3.35-5.22-4.33c-1.15-.7-2.07-1.81-.62-1s6.37,4.71,6.3,5.04-.46.3-.46.3Z"/><path class="cls-2" d="m85.37,142.44s-2.3-2.85-5.29-2.37-4.93,1.83-3.09,2.14,8.23,1.32,8.23,1.32l.15-1.09Z"/><path class="cls-2" d="m85.47,141.62s1.27.36,2.86.5,4.19-.3,4.17.64-1.71,2.46-4.17,1.37-4.02-1.17-4.02-1.17l1.15-1.34Z"/><path class="cls-2" d="m86.69,136.16s-3.54-1.91-4.67-2.13-1.86,1.26-.18,2.65,4.74.92,4.74.92l.11-1.43Z"/><path class="cls-2" d="m86.65,138.11s4.7.8,5.83-.1-.25-2.17-1.71-1.84-4.05.72-4.05.72l-.07,1.22Z"/><path class="cls-2" d="m87.44,133.74s5.34,1.26,6.2-.31c.86-1.56-4.45-2.09-5.4-1.83s-.8,2.13-.8,2.13Z"/><path class="cls-2" d="m87.97,132.45s-3.09-2.5-4.93-2.24,0,2.85,2.33,3.24,3.39-.51,3.39-.51l-.8-.49Z"/><path class="cls-2" d="m88.81,126.97s3.68-1.69,5.6-.37-2.65,2.72-5.6.37Z"/><path class="cls-2" d="m88.53,127.86s-2.46.58-4.35.83-3.91-.59-1.89-2.04,4.39-.49,6.12.4.12.81.12.81Z"/><path class="cls-2" d="m89.16,122.57s1.44-3.41,4.24-2.86,4.19,4.33-4.25,3.48v-.61Z"/><path class="cls-2" d="m89.08,123.56s-3.42,1.51-6.34.45-2.4-2.87.99-2.21c3.39.66,6.06.73,6.06.73l-.7,1.04Z"/><path class="cls-3" d="m87.56,114.44s-2.7-.47-1.49,1.94,1.13,1.39,2.04.4.78-2.03-.55-2.34Z"/><path class="cls-4" d="m90.33,114.81s-.01-.23,2.06,0,.07,3.08-1.89,2.26-.17-2.27-.17-2.27Z"/><path class="cls-4" d="m90.38,113.43s1.92-1.86,3.43-.68-1.83,3.95-3.43.68Z"/><path class="cls-4" d="m89.19,112.36s-1.18-1.68.51-1.74,2.86.22,2.32,1.01-1.8,2.11-2.82.74Z"/><path class="cls-4" d="m88.27,113.07s.06-2.61-1.51-2.02-2.76,1.25-1.26,1.88,2.53,1.05,2.76.15Z"/><path class="cls-4" d="m86.77,113.9s-.06,2.05-1.68,1.46-2.3-1.95-.79-1.99,2.68-.26,2.46.53Z"/><path class="cls-1" d="m89.12,113.57s-.37-.97.61-.55.57,1.95-.61.55Z"/><path class="cls-5" d="m88.46,113.87s1.35.17.74.72-.66-.26-.74-.72Z"/><path class="cls-5" d="m87.34,113.56c.82-.11,1.42.44.7.69s-1.56-.58-.7-.69Z"/><path class="cls-5" d="m88.68,113.54c-.42-.48-.61-.9.04-.77s.37,1.24-.04.77Z"/><path class="cls-5" d="m89.43,115.14s1.29.28.93-.52-1.76.36-.93.52Z"/></g></svg>