<?xml version="1.0" encoding="UTF-8"?><svg id="Layer_2" xmlns="http://www.w3.org/2000/svg" viewBox="0 0 164.06 171.7"><defs><style>.cls-1{fill:#634e42;}.cls-1,.cls-2,.cls-3{isolation:isolate;}.cls-1,.cls-2,.cls-4,.cls-5{stroke-width:0px;}.cls-2,.cls-5{fill:#7b9a51;}.cls-4{fill:#f8aa33;}</style></defs><g id="Layer_1-2"><path class="cls-1" d="m76.79,165.42s13.46-24.36,19.86-33.77,9.13-18.05,12.53-25.31c8.55-18.29,9.76-43.19,10.47-48.68s1.35-10.98,1.35-10.98c0,0,.85,22.75-2.35,40.26-3.2,17.52-17.94,43.4-21.15,48.37s-20.72,35.03-20.72,35.03v-4.93Z"/><path class="cls-2" d="m123.73,48.94s4.48-8.46,3.88-14.64-.7-9.26-3.88-15.03c0,0,2.72,24.36,0,25.89,0,0-.73,3.28-1.69,3.78s-4.48-11.95-10.45-10.16c0,0,9.76,6.77,7.27,19.02,0,0-.1-4.28-3.88-6.77s-9.46-.7-11.05,1.59c0,0,10.65-1.69,14.54,6.97,0,0,.9,4.58,3.88,4.28s11.55-2.49,14.04-2.49c0,0-2.89-1.79-7.87-1.89s1.1-4.48,1.1-4.48c0,0,6.47-5.58,10.26.2s5.58,14.44,5.58,14.44c0,0,.3-5.28-.7-8.36s-5.38-11.75-8.26-11.55-7.37,2.89-7.37,2.89c0,0,2.29-4.58,4.88-5.48s5.48-4.08,7.57-4.08c0,0-3.39-1.29-8.07,1.39s-6.87,4.68-6.87,4.68c0,0,4.98-7.97,7.77-10.36,0,0-3.58.1-7.47,5.68s-3.19,4.48-3.19,4.48Z"/><path class="cls-5" d="m119.65,74.53s8.46-6.47,12.35-6.37,8.46,1.1,10.36,1.49-11.15.3-14.24,2.09-9.36,6.47-9.36,6.47l.9-3.68Z"/><path class="cls-5" d="m96.45,132.74s8.46-6.47,12.35-6.37,8.46,1.1,10.36,1.49-11.15.3-14.24,2.09-9.36,6.47-9.36,6.47l.9-3.68Z"/><path class="cls-5" d="m114.32,92.76s-8.46-6.47-12.35-6.37-8.46,1.1-10.36,1.49,11.15.3,14.24,2.09,9.36,6.47,9.36,6.47l-.9-3.68Z"/><path class="cls-5" d="m117.11,79.67s6.64-4,9.69-3.94,6.64.68,8.13.92-8.75.18-11.18,1.29-7.35,4-7.35,4l.7-2.28Z"/><path class="cls-5" d="m90.32,142.63s6.64-4,9.69-3.94,6.64.68,8.13.92-8.75.18-11.18,1.29-7.35,4-7.35,4l.7-2.28Z"/><path class="cls-5" d="m118.75,80.61s8.25-2.29,11.89,1.29c0,0-11.49-.2-12.59,1.29s.7-2.59.7-2.59Z"/><path class="cls-5" d="m85.56,154.07s18.93-3.91,27.28,2.21c0,0-26.36-.34-28.88,2.21s1.6-4.43,1.6-4.43Z"/><path class="cls-5" d="m102.31,121.93s-8.97-8.51-15.42-8.41c0,0,14.33,9.01,14.88,11.14s.54-2.73.54-2.73Z"/><path class="cls-5" d="m119.36,86.48s12.94-3.67,23.17-.09c0,0-15.24-1.53-25.13,2.67-3.15,1.34,1.96-2.59,1.96-2.59Z"/><path class="cls-5" d="m104.58,119.79s-5-15.79-18.04-19.93c0,0,14.1,11.07,15.95,24.94.59,4.41,2.1-5,2.1-5Z"/><path class="cls-5" d="m103.87,123.5s12.94-3.67,23.17-.09c0,0-15.24-1.53-25.13,2.67-3.15,1.34,1.96-2.59,1.96-2.59Z"/><path class="cls-5" d="m117.25,73.86c2.72,5.57.9-3.09.9-3.09,0,0,.4-2.69-8.96-2.89"/><path class="cls-5" d="m90.18,140.74c2.72,5.57.9-3.09.9-3.09,0,0,.4-2.69-8.96-2.89"/><path class="cls-5" d="m109.06,96.3c11.2,4.55,3.69-2.52,3.69-2.52,0,0,1.64-2.2-36.85-2.36"/><path class="cls-5" d="m116.88,99.39c-7.82-.62.01-3.28.01-3.28,0,0,.7-2.28,17.62,11.71"/><path class="cls-5" d="m112.51,112.25c-9.57-.93-.06-3.99-.06-3.99,0,0,.8-2.76,21.78,14.6"/><path class="cls-5" d="m113.21,85.68c6.47,8.52,3.94-.28,3.94-.28,0,0,2.24-.95-26.97-18.36"/><path class="cls-5" d="m112.83,98.17s12.36-12.24,25.81-7.81c0,0-9.92-.21-12.91,1.48s-12.48,8.66-12.91,6.33Z"/><path class="cls-5" d="m127.46,68.59c2.72,5.57.9-3.09.9-3.09,0,0,.4-2.69-8.96-2.89"/><path class="cls-5" d="m87.89,152.24s12.94-3.67,23.17-.09c0,0-15.24-1.53-25.13,2.67-3.15,1.34,1.96-2.59,1.96-2.59Z"/><path class="cls-5" d="m85.15,148.39s-12.22-12.91-25.56-17.78c0,0,17.71,10.39,26.25,21.4,2.72,3.51-.69-3.63-.69-3.63Z"/><g class="cls-3"><path class="cls-4" d="m79.48,91.84s2.28,4.04-.07,4.4-4.81-6.94.07-4.4Z"/><path class="cls-4" d="m75.24,86.67s-2.4-2.36-1.05-3.58,4.23-1.47,3.52,2.9c0,0-1.13,2.67-2.47.69Z"/><path class="cls-4" d="m74.51,80.83c1.07-.21.72-3.87-.81-4.4s-3.52,5.26.81,4.4Z"/><path class="cls-4" d="m97.36,82.75c1.11-.31.96-4.53-.57-5.05s-3.91,6.3.57,5.05Z"/><path class="cls-4" d="m72.78,83.57s2,2.92.04,2.61-2.83.27-2.43-1.47,2.39-1.14,2.39-1.14Z"/><path class="cls-4" d="m83.08,90.96c1.13-.38,2.24-3.84.72-4.73s-4.66,6.06-.72,4.73Z"/><path class="cls-4" d="m92.66,87.41c1.13-.38,2.24-3.84.72-4.73s-4.66,6.06-.72,4.73Z"/><path class="cls-4" d="m97.78,76.12c1.1-.3,2.05-3.33.52-4.18s-4.34,5.2-.52,4.18Z"/><path class="cls-4" d="m94.58,75.24c.8-.81.08-3.91-1.67-3.87-1.75.04-1.1,6.69,1.67,3.87Z"/><path class="cls-4" d="m80.85,82.35s2.1-.37,1.35-2.78-1.61-2.84-2.19-1.63-.13,4.89.83,4.4Z"/><path class="cls-4" d="m80.48,72.05c.86-.25,2.43-2.45.65-3.53s-2.43,4.04-.65,3.53Z"/><path class="cls-4" d="m80.42,65.48c.86-.25,2.43-2.45.65-3.53s-2.43,4.04-.65,3.53Z"/><path class="cls-4" d="m84.71,68.8c-1.79-1.08-2.43,4.04-.65,3.53.86-.25,2.43-2.45.65-3.53"/><path class="cls-4" d="m84.22,61.58c-1.79-1.08-2.43,4.04-.65,3.53.86-.25,2.43-2.45.65-3.53"/></g><path class="cls-1" d="m83.64,163.37s-5.43-19.91-8.02-27.6-3.69-14.75-5.06-20.68c-3.45-14.95-3.94-35.3-4.23-39.79s-.55-8.97-.55-8.97c0,0-.34,18.59.95,32.91s7.24,35.47,8.53,39.53,8.36,28.63,8.36,28.63v-4.03Z"/><path class="cls-2" d="m64.69,68.16s-1.81-6.92-1.57-11.96.28-7.57,1.57-12.29c0,0-1.1,19.91,0,21.16,0,0,.29,2.68.68,3.09s1.81-9.77,4.22-8.3c0,0-3.94,5.53-2.93,15.54,0,0,.04-3.5,1.57-5.53s3.82-.57,4.46,1.3c0,0-4.3-1.38-5.87,5.7,0,0-.36,3.74-1.57,3.5s-4.66-2.03-5.67-2.03c0,0,1.17-1.46,3.17-1.55s-.44-3.66-.44-3.66c0,0-2.61-4.56-4.14.16s-2.25,11.8-2.25,11.8c0,0-.12-4.31.28-6.84s2.17-9.6,3.34-9.44,2.97,2.36,2.97,2.36c0,0-.92-3.74-1.97-4.48s-2.21-3.34-3.05-3.34c0,0,1.37-1.06,3.26,1.14s2.77,3.82,2.77,3.82c0,0-2.01-6.51-3.13-8.46,0,0,1.45.08,3.01,4.64s1.29,3.66,1.29,3.66Z"/><path class="cls-5" d="m66.34,89.08s-3.42-5.29-4.98-5.21-3.42.9-4.18,1.22,4.5.24,5.75,1.71,3.78,5.29,3.78,5.29l-.36-3.01Z"/><path class="cls-5" d="m75.7,136.65s-3.42-5.29-4.98-5.21-3.42.9-4.18,1.22,4.5.24,5.75,1.71,3.78,5.29,3.78,5.29l-.36-3.01Z"/><path class="cls-5" d="m68.49,103.98s3.42-5.29,4.98-5.21,3.42.9,4.18,1.22-4.5.24-5.75,1.71-3.78,5.29-3.78,5.29l.36-3.01Z"/><path class="cls-5" d="m67.36,93.28s-2.68-3.27-3.91-3.22-2.68.55-3.28.76,3.53.15,4.51,1.06,2.97,3.27,2.97,3.27l-.28-1.86Z"/><path class="cls-5" d="m78.18,144.74s-2.68-3.27-3.91-3.22-2.68.55-3.28.76,3.53.15,4.51,1.06,2.97,3.27,2.97,3.27l-.28-1.86Z"/><path class="cls-5" d="m66.7,94.04s-3.33-1.87-4.8,1.06c0,0,4.64-.16,5.08,1.06s-.28-2.12-.28-2.12Z"/><path class="cls-5" d="m80.1,154.09s-7.64-3.2-11.01,1.81c0,0,10.64-.28,11.66,1.81s-.65-3.62-.65-3.62Z"/><path class="cls-5" d="m73.33,127.82s3.62-6.96,6.22-6.87c0,0-5.79,7.36-6.01,9.1s-.22-2.23-.22-2.23Z"/><path class="cls-5" d="m66.45,98.84s-5.22-3-9.35-.07c0,0,6.15-1.25,10.14,2.19,1.27,1.09-.79-2.12-.79-2.12Z"/><path class="cls-5" d="m72.42,126.07s2.02-12.91,7.28-16.29c0,0-5.69,9.05-6.44,20.38-.24,3.61-.85-4.09-.85-4.09Z"/><path class="cls-5" d="m72.7,129.1s-5.22-3-9.35-.07c0,0,6.15-1.25,10.14,2.19,1.27,1.09-.79-2.12-.79-2.12Z"/><path class="cls-5" d="m67.3,88.53c-1.1,4.55-.36-2.52-.36-2.52,0,0-.16-2.2,3.62-2.36"/><path class="cls-5" d="m78.23,143.19c-1.1,4.55-.36-2.52-.36-2.52,0,0-.16-2.2,3.62-2.36"/><path class="cls-5" d="m70.61,106.87c-4.52,3.72-1.49-2.06-1.49-2.06,0,0-.66-1.8,14.87-1.93"/><path class="cls-5" d="m67.46,109.4c3.16-.51,0-2.68,0-2.68,0,0-.28-1.87-7.11,9.57"/><path class="cls-5" d="m69.22,119.91c3.86-.76.02-3.26.02-3.26,0,0-.32-2.25-8.79,11.93"/><path class="cls-5" d="m68.93,98.19c-2.61,6.96-1.59-.23-1.59-.23,0,0-.9-.77,10.89-15.01"/><path class="cls-5" d="m69.09,108.4s-4.99-10.01-10.42-6.38c0,0,4-.17,5.21,1.21s5.04,7.07,5.21,5.18Z"/><path class="cls-5" d="m63.19,84.22c-1.1,4.55-.36-2.52-.36-2.52,0,0-.16-2.2,3.62-2.36"/><path class="cls-5" d="m79.15,152.59s-5.22-3-9.35-.07c0,0,6.15-1.25,10.14,2.19,1.27,1.09-.79-2.12-.79-2.12Z"/><path class="cls-5" d="m80.26,149.44s4.93-10.55,10.32-14.53c0,0-7.15,8.49-10.59,17.49-1.1,2.87.28-2.96.28-2.96Z"/><path class="cls-1" d="m77.85,158.2s14.9-4.49,20.84-5.82c5.94-1.33,10.91-3.61,15.26-5.16,10.95-3.9,24.27-12.74,27.27-14.54s6-3.62,6-3.62c0,0-11.86,8.74-21.59,14.16-9.73,5.42-25.63,10.05-28.74,10.81s-21.64,6-21.64,6l2.6-1.83Z"/><path class="cls-2" d="m146.45,130.81s5.15-1.63,8.31-4.12,4.78-3.68,7.34-6.9c0,0-12.43,9.97-13.65,9.62,0,0-1.84.97-2.25.83s5.62-5.96,3.76-7.31c0,0-2.08,5.82-8.92,9.53,0,0,2.24-1.62,2.98-3.83s-1.08-3.46-2.53-3.15c0,0,2.52,2.98-1.45,7.51,0,0-2.28,2-1.66,2.9s3.08,2.98,3.46,3.83c0,0,.5-1.64-.2-3.36s2.53-1.29,2.53-1.29c0,0,3.93.12,1.46,3.54-2.47,3.43-6.76,7.25-6.76,7.25,0,0,2.83-1.86,4.3-3.34s5.37-6.18,4.83-7.09-2.65-1.42-2.65-1.42c0,0,2.77-.93,3.63-.38s2.99.34,3.31,1.04c0,0,.17-1.63-1.97-2.21s-3.52-.59-3.52-.59c0,0,4.96-1.27,6.65-1.22,0,0-.6-1.18-4.13-.42s-2.85.59-2.85.59Z"/><path class="cls-5" d="m132.33,138.94s4.71.46,5.25,1.81.72,3.27.79,4.06-1.86-3.66-3.28-4.04-4.84-.76-4.84-.76l2.08-1.07Z"/><path class="cls-5" d="m98.09,152.71s4.71.46,5.25,1.81.72,3.27.79,4.06-1.86-3.66-3.28-4.04-4.84-.76-4.84-.76l2.08-1.07Z"/><path class="cls-5" d="m121.9,143.91s2.12-5.27,1.47-6.55-1.87-2.46-2.37-2.95,1.55,3.88,1.07,5.6-1.98,5.57-1.98,5.57l1.81-1.67Z"/><path class="cls-5" d="m129.23,139.99s3.13.76,3.56,1.81.66,2.5.75,3.09-1.43-2.89-2.39-3.3-3.23-1-3.23-1l1.31-.61Z"/><path class="cls-5" d="m91.94,154.31s3.13.76,3.56,1.81.66,2.5.75,3.09-1.43-2.89-2.39-3.3-3.23-1-3.23-1l1.31-.61Z"/><path class="cls-5" d="m128.99,140.89s2.47,1.94,1.13,4.51c0,0-1.65-3.96-2.61-3.78s1.47-.73,1.47-.73Z"/><path class="cls-5" d="m85.17,156.95s4.96,4.95,3,10.05c0,0-3.85-9.05-5.58-8.95s2.58-1.1,2.58-1.1Z"/><path class="cls-5" d="m104.68,150.68s3.12-6.2,2.08-8.34c0,0-2.56,8.2-3.6,9.17s1.52-.83,1.52-.83Z"/><path class="cls-5" d="m125.99,143.28s3.91,3.02,3.59,7.81c0,0-1.52-5.73-5.25-7.51-1.19-.57,1.66-.3,1.66-.3Z"/><path class="cls-5" d="m106.16,150.65s7.56-7.56,7.75-13.51c0,0-3.68,8.88-10.71,14.66-2.24,1.84,2.96-1.15,2.96-1.15Z"/><path class="cls-5" d="m104.1,151.79s3.91,3.02,3.59,7.81c0,0-1.52-5.73-5.25-7.51-1.19-.57,1.66-.3,1.66-.3Z"/><path class="cls-5" d="m132.32,137.88c-2.52,2.99,1.76-.84,1.76-.84,0,0,1.48-.86.15-4.11"/><path class="cls-5" d="m92.91,153.56c-2.52,2.99,1.76-.84,1.76-.84,0,0,1.48-.86.15-4.11"/><path class="cls-5" d="m119.23,143.44c-.69,5.48,1.89.31,1.89.31,0,0,1.41-.26-4.38-13.35"/><path class="cls-5" d="m118.79,147.24c-.87-2.88,1.73-1.22,1.73-1.22,0,0,1.31-.61-3.48,10.31"/><path class="cls-5" d="m111.35,150.54c-.97-3.58,2.09-1.5,2.09-1.5,0,0,1.58-.75-4.37,12.79"/><path class="cls-5" d="m125.47,140.9c-3.5,5.35.75,1.23.75,1.23,0,0,.84.41,5.56-15.95"/><path class="cls-5" d="m118.82,145.41s8.35-.37,8.06,5.83c0,0-1.4-3.44-2.75-3.82s-6.47-1.01-5.31-2.02Z"/><path class="cls-5" d="m136.65,139.37c-2.52,2.99,1.76-.84,1.76-.84,0,0,1.48-.86.15-4.11"/><path class="cls-5" d="m86.5,157.06s3.91,3.02,3.59,7.81c0,0-1.52-5.73-5.25-7.51-1.19-.57,1.66-.3,1.66-.3Z"/><path class="cls-5" d="m88.11,154.7s4.94-8.93,5.47-15.25c0,0-2.77,9.85-7.28,16.84-1.43,2.22,1.81-1.58,1.81-1.58Z"/><path class="cls-1" d="m133.81,167.89s5.16-20.18,7.89-28.1,3.31-14.87,4.47-20.82c2.93-15,.52-34.38.26-38.69s-.56-8.63-.56-8.63c0,0,3.39,17.51,3.64,31.37.25,13.87-5.5,35.35-6.84,39.52s-8.26,29.16-8.26,29.16l-.62-3.81Z"/><path class="cls-2" d="m147.83,73.13s1.67-6.99.53-11.71-1.59-7.09-4.27-11.24c0,0,4.74,18.57,3.27,20.02,0,0-.03,2.61-.56,3.09s-4.25-8.79-7.68-6.81c0,0,6.82,4.26,6.85,13.98,0,0-.6-3.3-3.23-4.85s-5.88.41-6.56,2.34c0,0,6.3-2.37,9.77,3.94,0,0,1.13,3.45,2.92,2.92s6.75-3.08,8.28-3.33c0,0-1.99-1.1-5.05-.68s.1-3.57.1-3.57c0,0,3.26-4.96,6.3-.87s5.23,10.61,5.23,10.61c0,0-.48-4.11-1.48-6.4s-4.77-8.55-6.51-8.11-4.14,2.97-4.14,2.97c0,0,.82-3.77,2.29-4.72s2.84-3.7,4.11-3.91c0,0-2.23-.66-4.76,1.88s-3.61,4.3-3.61,4.3c0,0,2.04-6.66,3.45-8.78,0,0-2.18.43-3.85,5.13s-1.38,3.78-1.38,3.78Z"/><path class="cls-5" d="m148.56,93.33s4.36-5.85,6.75-6.16,5.32,0,6.52.12-6.79,1.34-8.45,3.04-4.91,5.94-4.91,5.94l.08-2.94Z"/><path class="cls-5" d="m141.71,140.65s4.36-5.85,6.75-6.16,5.32,0,6.52.12-6.79,1.34-8.45,3.04-4.91,5.94-4.91,5.94l.08-2.94Z"/><path class="cls-5" d="m147.6,107.96s-5.99-4.16-8.36-3.7-5.04,1.69-6.15,2.19,6.86-.88,8.97.2,6.54,4.07,6.54,4.07l-1.01-2.76Z"/><path class="cls-5" d="m147.66,97.55s3.56-3.76,5.43-4.02,4.15-.14,5.09-.1-5.33,1.02-6.67,2.12-3.99,3.83-3.99,3.83l.14-1.83Z"/><path class="cls-5" d="m139.21,148.91s3.56-3.76,5.43-4.02,4.15-.14,5.09-.1-5.33,1.02-6.67,2.12-3.99,3.83-3.99,3.83l.14-1.83Z"/><path class="cls-5" d="m148.78,98.11s4.76-2.59,7.44-.19c0,0-7.06.99-7.54,2.26s.1-2.07.1-2.07Z"/><path class="cls-5" d="m137.74,158.24s11.09-4.92,16.97-1.01c0,0-16.17,2.37-17.39,4.59s.42-3.58.42-3.58Z"/><path class="cls-5" d="m143.94,131.71s-6.56-5.69-10.49-4.96c0,0,9.91,5.54,10.51,7.13s-.01-2.17-.01-2.17Z"/><path class="cls-5" d="m149.89,102.59s7.46-4.13,14.17-2.38c0,0-9.52.34-15.04,4.58-1.76,1.35.87-2.2.87-2.2Z"/><path class="cls-5" d="m145.05,129.83s-5.05-11.71-13.55-13.61c0,0,10.02,7.15,12.9,17.69.92,3.35.65-4.08.65-4.08Z"/><path class="cls-5" d="m145.09,132.77s7.46-4.13,14.17-2.38c0,0-9.52.34-15.04,4.58-1.76,1.35.87-2.2.87-2.2Z"/><path class="cls-5" d="m147.01,93.04c2.37,4.03.16-2.48.16-2.48,0,0-.1-2.12-5.85-1.34"/><path class="cls-5" d="m138.88,147.46c2.37,4.03.16-2.48.16-2.48,0,0-.1-2.12-5.85-1.34"/><path class="cls-5" d="m144.83,111.22c7.43,2.4,1.94-2.32,1.94-2.32,0,0,.72-1.86-22.84,1.85"/><path class="cls-5" d="m150,112.83c-4.86.3-.41-2.54-.41-2.54,0,0,.14-1.84,12.26,7.3"/><path class="cls-5" d="m148.95,123.21c-5.97.24-.54-3.08-.54-3.08,0,0,.14-2.21,15.17,9.12"/><path class="cls-5" d="m146.03,102.59c5.03,5.94,2.38-.61,2.38-.61,0,0,1.25-.96-18.82-11.51"/><path class="cls-5" d="m147.37,112.29s6.02-10.7,14.81-8.62c0,0-6.1.83-7.71,2.43s-6.55,7.94-7.1,6.19Z"/><path class="cls-5" d="m152.59,87.95c2.37,4.03.16-2.48.16-2.48,0,0-.1-2.12-5.85-1.34"/><path class="cls-5" d="m138.94,156.59s7.46-4.13,14.17-2.38c0,0-9.52.34-15.04,4.58-1.76,1.35.87-2.2.87-2.2Z"/><path class="cls-5" d="m136.77,153.88s-9.1-8.76-17.88-11.2c0,0,12.15,6.27,18.76,13.93,2.1,2.44-.88-2.73-.88-2.73Z"/><path class="cls-1" d="m63.6,159.6s-12.97-25.75-18.66-35.52c-5.68-9.77-9.15-19.21-12.67-26.98-8.88-19.57-15.19-47.79-16.82-53.94s-3.23-12.32-3.23-12.32c0,0,4.68,26.06,10.42,45.56,5.74,19.49,19.77,46.79,22.67,51.98,2.9,5.18,19.42,36.84,19.42,36.84l-1.12-5.62Z"/><path class="cls-2" d="m11.21,33.83s-4.4-8.98-5.47-16.11c-1.07-7.13-1.71-10.66-1.25-17.73,0,0,4,28.19,5.86,29.52,0,0,1.15,3.63,1.79,4.06s-.22-14.3,3.5-13.15c0,0-3.88,9.18.28,22.78,0,0-.91-4.9.62-8.3s5.09-2.21,6.49.16c0,0-6.29-.33-6.48,10.13,0,0,.54,5.36-1.18,5.46s-6.97-1.1-8.35-.73c0,0,1.2-2.48,3.93-3.34s-1.62-4.94-1.62-4.94c0,0-4.85-5.39-5.64,1.77-.79,7.15.18,17.3.18,17.3,0,0-1.36-5.97-1.51-9.64s.32-14.2,1.97-14.41,4.74,2.19,4.74,2.19c0,0-2.31-4.88-3.94-5.51s-3.96-3.83-5.12-3.52c0,0,1.58-1.98,4.79.38s4.87,4.3,4.87,4.3c0,0-4.56-8.34-6.65-10.64,0,0,2.01-.42,5.42,5.35s2.78,4.63,2.78,4.63Z"/><path class="cls-5" d="m19.27,62.4s-6.16-6.11-8.29-5.41-4.44,2.52-5.4,3.26,6.25-1.33,8.37.25,6.65,5.97,6.65,5.97l-1.33-4.07Z"/><path class="cls-5" d="m45.3,125.29s-6.16-6.11-8.29-5.41-4.44,2.52-5.4,3.26,6.25-1.33,8.37.25,6.65,5.97,6.65,5.97l-1.33-4.07Z"/><path class="cls-5" d="m26.35,82.39s3.23-8.65,5.4-9.12,4.94-.02,6.08.15-6.11,2.01-7.42,4.52-3.72,8.78-3.72,8.78l-.34-4.34Z"/><path class="cls-5" d="m21.84,67.88s-4.59-3.57-6.26-3.04-3.53,1.77-4.3,2.27,4.89-1.1,6.49-.2,4.98,3.46,4.98,3.46l-.91-2.49Z"/><path class="cls-5" d="m50.94,135.64s-4.59-3.57-6.26-3.04-3.53,1.77-4.3,2.27,4.89-1.1,6.49-.2,4.98,3.46,4.98,3.46l-.91-2.49Z"/><path class="cls-5" d="m21.14,69.19s-5.09-1.37-6.3,3.26c0,0,6.33-1.95,7.27-.41s-.97-2.85-.97-2.85Z"/><path class="cls-5" d="m56.17,147.98s-11.38-1.62-14.62,6.62c0,0,14.54-4.35,16.51-1.81s-1.89-4.81-1.89-4.81Z"/><path class="cls-5" d="m39.61,113.85s3.05-11.05,6.65-11.9c0,0-5.91,12.43-5.73,14.94s-.92-3.03-.92-3.03Z"/><path class="cls-5" d="m22.13,75.98s-8.01-2.24-12.87,3.38c0,0,8.1-4.03,14.54-.72,2.05,1.05-1.67-2.66-1.67-2.66Z"/><path class="cls-5" d="m37.87,111.74s-.8-18.76,5.49-25.44c0,0-5.31,14.74-3.2,30.83.67,5.12-2.3-5.39-2.3-5.39Z"/><path class="cls-5" d="m39.09,115.87s-8.01-2.24-12.87,3.38c0,0,8.1-4.03,14.54-.72,2.05,1.05-1.67-2.66-1.67-2.66Z"/><path class="cls-5" d="m20.44,61.27c-.25,6.76-1.2-3.39-1.2-3.39,0,0-.83-3.01,4.31-4.64"/><path class="cls-5" d="m50.59,133.47c-.25,6.76-1.2-3.39-1.2-3.39,0,0-.83-3.01,4.31-4.64"/><path class="cls-5" d="m30.06,85.64c-5.18,6.87-2.61-2.32-2.61-2.32,0,0-1.41-2.26,19.89-8.22"/><path class="cls-5" d="m26.43,90.33c4.2-1.89-.75-3.74-.75-3.74,0,0-.9-2.5-7.12,16"/><path class="cls-5" d="m31.76,104.34c5.1-2.5-.87-4.55-.87-4.55,0,0-1.07-3.02-8.77,19.92"/><path class="cls-5" d="m25.36,74.14c-1.66,10.69-2.25.28-2.25.28,0,0-1.46-.74,10.8-24.99"/><path class="cls-5" d="m28.4,88.33s-9.62-12.11-16.08-5.03c0,0,5.45-1.73,7.49-.25s8.88,8,8.59,5.28Z"/><path class="cls-5" d="m13.59,56.8c-.25,6.76-1.2-3.39-1.2-3.39,0,0-.83-3.01,4.31-4.64"/><path class="cls-5" d="m54.46,146.24s-8.01-2.24-12.87,3.38c0,0,8.1-4.03,14.54-.72,2.05,1.05-1.67-2.66-1.67-2.66Z"/><path class="cls-5" d="m55.11,141.44s3.85-16.55,10.14-24.11c0,0-7.47,14.5-9.71,28.35-.71,4.41-.44-4.24-.44-4.24Z"/><path class="cls-1" d="m70.4,163.72s5.16-27.66,7.89-38.51,3.31-20.38,4.47-28.54c2.93-20.56.52-47.12.26-53.04s-.56-11.83-.56-11.83c0,0,3.39,24,3.64,43,.25,19.01-5.5,48.46-6.84,54.17-1.33,5.7-8.26,39.97-8.26,39.97l-.62-5.22Z"/><path class="cls-2" d="m84.42,33.82s1.67-9.59.53-16.05-1.59-9.72-4.27-15.41c0,0,4.74,25.46,3.27,27.44,0,0-.03,3.58-.56,4.24s-4.25-12.05-7.68-9.34c0,0,6.82,5.84,6.85,19.17,0,0-.6-4.53-3.23-6.65s-5.88.56-6.56,3.2c0,0,6.3-3.25,9.77,5.4,0,0,1.13,4.73,2.92,4.01,1.79-.73,6.75-4.22,8.28-4.56,0,0-1.99-1.5-5.05-.93s.1-4.9.1-4.9c0,0,3.26-6.8,6.3-1.19s5.23,14.54,5.23,14.54c0,0-.48-5.64-1.48-8.77s-4.77-11.72-6.51-11.11-4.14,4.07-4.14,4.07c0,0,.82-5.17,2.29-6.47s2.84-5.08,4.11-5.36c0,0-2.23-.91-4.76,2.58-2.52,3.49-3.61,5.9-3.61,5.9,0,0,2.04-9.13,3.45-12.04,0,0-2.18.6-3.85,7.04-1.67,6.44-1.38,5.19-1.38,5.19Z"/><path class="cls-5" d="m85.15,61.51s4.36-8.02,6.75-8.44,5.32,0,6.52.17-6.79,1.84-8.45,4.16-4.91,8.14-4.91,8.14l.08-4.03Z"/><path class="cls-5" d="m78.3,126.39s4.36-8.02,6.75-8.44,5.32,0,6.52.17-6.79,1.84-8.45,4.16-4.91,8.14-4.91,8.14l.08-4.03Z"/><path class="cls-5" d="m84.19,81.57s-5.99-5.7-8.36-5.07-5.04,2.32-6.15,3,6.86-1.21,8.97.27,6.54,5.58,6.54,5.58l-1.01-3.78Z"/><path class="cls-5" d="m84.25,67.3s3.56-5.15,5.43-5.51,4.15-.19,5.09-.13-5.33,1.39-6.67,2.9-3.99,5.25-3.99,5.25l.14-2.51Z"/><path class="cls-5" d="m75.8,137.71s3.56-5.15,5.43-5.51,4.15-.19,5.09-.13-5.33,1.39-6.67,2.9-3.99,5.25-3.99,5.25l.14-2.51Z"/><path class="cls-5" d="m85.37,68.07s4.76-3.56,7.44-.25c0,0-7.06,1.36-7.54,3.09s.1-2.84.1-2.84Z"/><path class="cls-5" d="m74.33,150.5s11.09-6.74,16.97-1.39c0,0-16.17,3.25-17.39,6.3s.42-4.91.42-4.91Z"/><path class="cls-5" d="m80.53,114.13s-6.56-7.8-10.49-6.8c0,0,9.91,7.59,10.51,9.77s-.01-2.97-.01-2.97Z"/><path class="cls-5" d="m86.48,74.21s7.46-5.66,14.17-3.26c0,0-9.52.46-15.04,6.27-1.76,1.85.87-3.01.87-3.01Z"/><path class="cls-5" d="m81.64,111.55s-5.05-16.06-13.55-18.66c0,0,10.02,9.81,12.9,24.25.92,4.6.65-5.59.65-5.59Z"/><path class="cls-5" d="m81.68,115.57s7.46-5.66,14.17-3.26c0,0-9.52.46-15.04,6.27-1.76,1.85.87-3.01.87-3.01Z"/><path class="cls-5" d="m83.6,61.12c2.37,5.53.16-3.39.16-3.39,0,0-.1-2.9-5.85-1.84"/><path class="cls-5" d="m75.47,135.72c2.37,5.53.16-3.39.16-3.39,0,0-.1-2.9-5.85-1.84"/><path class="cls-5" d="m81.42,86.04c7.43,3.29,1.94-3.18,1.94-3.18,0,0,.72-2.55-22.84,2.54"/><path class="cls-5" d="m86.59,88.24c-4.86.41-.41-3.48-.41-3.48,0,0,.14-2.52,12.26,10.01"/><path class="cls-5" d="m85.54,102.47c-5.97.33-.54-4.22-.54-4.22,0,0,.14-3.03,15.17,12.5"/><path class="cls-5" d="m82.62,74.2c5.03,8.15,2.38-.83,2.38-.83,0,0,1.25-1.31-18.82-15.78"/><path class="cls-5" d="m83.96,87.5s6.02-14.67,14.81-11.81c0,0-6.1,1.13-7.71,3.33s-6.55,10.88-7.1,8.48Z"/><path class="cls-5" d="m89.18,54.14c2.37,5.53.16-3.39.16-3.39,0,0-.1-2.9-5.85-1.84"/><path class="cls-5" d="m75.53,148.23s7.46-5.66,14.17-3.26c0,0-9.52.46-15.04,6.27-1.76,1.85.87-3.01.87-3.01Z"/><path class="cls-5" d="m73.36,144.52s-9.1-12.01-17.88-15.35c0,0,12.15,8.59,18.76,19.1,2.1,3.35-.88-3.75-.88-3.75Z"/><path class="cls-1" d="m50.32,164.64s-8.42-11-12.03-14.99c-3.61-4-5.99-8.32-8.31-11.73-5.86-8.58-10.71-22.42-11.91-25.39s-2.38-5.94-2.38-5.94c0,0,3.85,13.05,7.96,22.3s13.19,20.85,15.05,22.99,12.52,15.53,12.52,15.53l-.89-2.79Z"/><path class="cls-2" d="m15.27,108.44s-2.87-3.86-3.8-7.48-1.46-5.39-1.55-9.32c0,0,3.58,14.36,4.67,14.65,0,0,.81,1.71,1.19,1.79s-.81-7.69,1.3-7.92c0,0-1.7,5.86,1.25,12.27,0,0-.74-2.44-.06-4.64s2.7-2.36,3.59-1.39c0,0-3.49,1.25-3.09,6.96,0,0,.56,2.78-.39,3.23s-3.9.99-4.65,1.5c0,0,.54-1.61,2.01-2.7s-1.14-2.31-1.14-2.31c0,0-2.94-1.81-3.03,2.24s.93,9.33.93,9.33c0,0-1.04-2.93-1.3-4.88s-.51-7.77.39-8.25,2.73.11,2.73.11c0,0-1.51-2.12-2.45-2.09s-2.37-1.17-3-.74c0,0,.78-1.43,2.66-.88s2.9,1.22,2.9,1.22c0,0-2.93-3.48-4.19-4.25,0,0,1.09-.69,3.26,1.66s1.76,1.88,1.76,1.88Z"/><path class="cls-5" d="m21.11,122.08s-3.7-1.91-4.84-1.05-2.33,2.38-2.83,2.99,3.39-2.14,4.64-1.77,3.97,1.72,3.97,1.72l-.93-1.9Z"/><path class="cls-5" d="m38.54,150.21s-3.7-1.91-4.84-1.05-2.33,2.38-2.83,2.99,3.39-2.14,4.64-1.77,3.97,1.72,3.97,1.72l-.93-1.9Z"/><path class="cls-5" d="m25.99,131.29s1.37-5.42,2.55-6.17,2.73-1.14,3.37-1.3-3.28,2.48-3.88,4.14-1.63,5.6-1.63,5.6l-.4-2.27Z"/><path class="cls-5" d="m22.79,124.46s-2.71-.89-3.61-.22-1.87,1.76-2.27,2.21,2.65-1.71,3.58-1.59,2.92.74,2.92.74l-.62-1.14Z"/><path class="cls-5" d="m42.16,154.54s-2.71-.89-3.61-.22-1.87,1.76-2.27,2.21,2.65-1.71,3.58-1.59,2.92.74,2.92.74l-.62-1.14Z"/><path class="cls-5" d="m22.47,125.33s-2.88.42-3.33,3.2c0,0,3.4-2.5,4-1.88s-.68-1.32-.68-1.32Z"/><path class="cls-5" d="m45.65,160.03s-6.37,1.71-7.76,6.91c0,0,7.83-5.66,9.04-4.74s-1.28-2.17-1.28-2.17Z"/><path class="cls-5" d="m34.84,145.31s1.15-6.68,3.1-7.96c0,0-2.66,8.07-2.44,9.39s-.65-1.43-.65-1.43Z"/><path class="cls-5" d="m23.34,128.78s-4.54.61-6.95,4.76c0,0,4.29-4.03,8-3.7,1.18.1-1.05-1.06-1.05-1.06Z"/><path class="cls-5" d="m33.77,144.57s-1.35-9.98,1.81-15.03c0,0-2.22,9.19-.28,17.42.62,2.62-1.53-2.4-1.53-2.4Z"/><path class="cls-5" d="m34.65,146.52s-4.54.61-6.95,4.76c0,0,4.29-4.03,8-3.7,1.18.1-1.05-1.06-1.05-1.06Z"/><path class="cls-5" d="m21.7,121.2c.19,3.72-.82-1.56-.82-1.56,0,0-.6-1.44,2.16-3.49"/><path class="cls-5" d="m41.86,153.44c.19,3.72-.82-1.56-.82-1.56,0,0-.6-1.44,2.16-3.49"/><path class="cls-5" d="m28.2,132.21c-2.53,4.9-1.56-.66-1.56-.66,0,0-.89-.9,10.6-8.98"/><path class="cls-5" d="m26.42,135.58c2.23-1.98-.6-1.86-.6-1.86,0,0-.62-1.15-3.16,10.28"/><path class="cls-5" d="m30.04,141.95c2.7-2.51-.7-2.27-.7-2.27,0,0-.74-1.39-3.88,12.78"/><path class="cls-5" d="m25.04,127.05c-.4,6.16-1.23.66-1.23.66,0,0-.84-.07,4.76-15.99"/><path class="cls-5" d="m27.41,134.05s-5.91-4.37-9.13.93c0,0,2.93-2.18,4.13-1.84s5.3,2.31,5,.91Z"/><path class="cls-5" d="m17.7,120.33c.19,3.72-.82-1.56-.82-1.56,0,0-.6-1.44,2.16-3.49"/><path class="cls-5" d="m44.62,159.48s-4.54.61-6.95,4.76c0,0,4.29-4.03,8-3.7,1.18.1-1.05-1.06-1.05-1.06Z"/><path class="cls-5" d="m44.74,156.73s1.33-9.84,4.44-15.37c0,0-3.43,9.56-4,17.56-.18,2.55-.45-2.2-.45-2.2Z"/><path class="cls-1" d="m105.93,166.49s6.59-11,9.42-14.99c2.83-4,4.68-8.32,6.5-11.73,4.58-8.58,8.38-22.42,9.32-25.39s1.87-5.94,1.87-5.94c0,0-3.01,13.05-6.23,22.3s-10.32,20.85-11.78,22.99-9.79,15.53-9.79,15.53l.7-2.79Z"/><path class="cls-2" d="m133.35,110.3s2.24-3.86,2.97-7.48,1.14-5.39,1.21-9.32c0,0-2.8,14.36-3.65,14.65,0,0-.63,1.71-.93,1.79s.64-7.69-1.02-7.92c0,0,1.33,5.86-.98,12.27,0,0,.58-2.44.05-4.64s-2.12-2.36-2.81-1.39c0,0,2.73,1.25,2.42,6.96,0,0-.44,2.78.31,3.23s3.06.99,3.64,1.5c0,0-.42-1.61-1.57-2.7s.89-2.31.89-2.31c0,0,2.3-1.81,2.37,2.24s-.73,9.33-.73,9.33c0,0,.81-2.93,1.02-4.88s.4-7.77-.31-8.25-2.13.11-2.13.11c0,0,1.18-2.12,1.92-2.09s1.86-1.17,2.35-.74c0,0-.61-1.43-2.09-.88s-2.27,1.22-2.27,1.22c0,0,2.29-3.48,3.28-4.25,0,0-.85-.69-2.55,1.66s-1.38,1.88-1.38,1.88Z"/><path class="cls-5" d="m128.79,123.94s2.89-1.91,3.79-1.05,1.83,2.38,2.21,2.99-2.65-2.14-3.63-1.77-3.1,1.72-3.1,1.72l.73-1.9Z"/><path class="cls-5" d="m115.14,152.07s2.89-1.91,3.79-1.05,1.83,2.38,2.21,2.99-2.65-2.14-3.63-1.77-3.1,1.72-3.1,1.72l.73-1.9Z"/><path class="cls-5" d="m124.97,133.15s-1.07-5.42-1.99-6.17-2.14-1.14-2.64-1.3,2.57,2.48,3.04,4.14,1.28,5.6,1.28,5.6l.31-2.27Z"/><path class="cls-5" d="m127.47,126.32s2.12-.89,2.83-.22,1.46,1.76,1.77,2.21-2.08-1.71-2.8-1.59-2.29.74-2.29.74l.49-1.14Z"/><path class="cls-5" d="m112.31,156.4s2.12-.89,2.83-.22,1.46,1.76,1.77,2.21-2.08-1.71-2.8-1.59-2.29.74-2.29.74l.49-1.14Z"/><path class="cls-5" d="m127.72,127.19s2.26.42,2.6,3.2c0,0-2.66-2.5-3.13-1.88s.53-1.32.53-1.32Z"/><path class="cls-5" d="m109.58,161.89s4.98,1.71,6.08,6.91c0,0-6.13-5.66-7.07-4.74s1-2.17,1-2.17Z"/><path class="cls-5" d="m118.04,147.17s-.9-6.68-2.42-7.96c0,0,2.08,8.07,1.91,9.39s.51-1.43.51-1.43Z"/><path class="cls-5" d="m127.03,130.64s3.55.61,5.44,4.76c0,0-3.35-4.03-6.26-3.7-.93.1.82-1.06.82-1.06Z"/><path class="cls-5" d="m118.87,146.43s1.06-9.98-1.41-15.03c0,0,1.74,9.19.22,17.42-.48,2.62,1.2-2.4,1.2-2.4Z"/><path class="cls-5" d="m118.19,148.38s3.55.61,5.44,4.76c0,0-3.35-4.03-6.26-3.7-.93.1.82-1.06.82-1.06Z"/><path class="cls-5" d="m128.32,123.06c-.15,3.72.65-1.56.65-1.56,0,0,.47-1.44-1.69-3.49"/><path class="cls-5" d="m112.55,155.3c-.15,3.72.65-1.56.65-1.56,0,0,.47-1.44-1.69-3.49"/><path class="cls-5" d="m123.24,134.06c1.98,4.9,1.22-.66,1.22-.66,0,0,.69-.9-8.3-8.98"/><path class="cls-5" d="m124.63,137.43c-1.74-1.98.47-1.86.47-1.86,0,0,.49-1.15,2.47,10.28"/><path class="cls-5" d="m121.79,143.81c-2.11-2.51.55-2.27.55-2.27,0,0,.58-1.39,3.04,12.78"/><path class="cls-5" d="m125.71,128.91c.31,6.16.96.66.96.66,0,0,.66-.07-3.72-15.99"/><path class="cls-5" d="m123.86,135.9s4.62-4.37,7.15.93c0,0-2.29-2.18-3.23-1.84s-4.14,2.31-3.92.91Z"/><path class="cls-5" d="m131.45,122.19c-.15,3.72.65-1.56.65-1.56,0,0,.47-1.44-1.69-3.49"/><path class="cls-5" d="m110.39,161.33s3.55.61,5.44,4.76c0,0-3.35-4.03-6.26-3.7-.93.1.82-1.06.82-1.06Z"/><path class="cls-5" d="m110.29,158.59s-1.04-9.84-3.48-15.37c0,0,2.68,9.56,3.13,17.56.14,2.55.35-2.2.35-2.2Z"/><g class="cls-3"><path class="cls-4" d="m84.89,152.64s2.28,4.04-.07,4.4-4.81-6.94.07-4.4Z"/><path class="cls-4" d="m80.65,147.47s-2.4-2.36-1.05-3.58,4.23-1.47,3.52,2.9c0,0-1.13,2.67-2.47.69Z"/><path class="cls-4" d="m79.92,141.63c1.07-.21.72-3.87-.81-4.4s-3.52,5.26.81,4.4Z"/><path class="cls-4" d="m102.77,143.55c1.11-.31.96-4.53-.57-5.05s-3.91,6.3.57,5.05Z"/><path class="cls-4" d="m78.19,144.38s2,2.92.04,2.61-2.83.27-2.43-1.47,2.39-1.14,2.39-1.14Z"/><path class="cls-4" d="m88.49,151.76c1.13-.38,2.24-3.84.72-4.73s-4.66,6.06-.72,4.73Z"/><path class="cls-4" d="m98.07,148.21c1.13-.38,2.24-3.84.72-4.73s-4.66,6.06-.72,4.73Z"/><path class="cls-4" d="m103.19,136.92c1.1-.3,2.05-3.33.52-4.18s-4.34,5.2-.52,4.18Z"/><path class="cls-4" d="m99.98,136.04c.8-.81.08-3.91-1.67-3.87-1.75.04-1.1,6.69,1.67,3.87Z"/><path class="cls-4" d="m86.26,143.15s2.1-.37,1.35-2.78-1.61-2.84-2.19-1.63-.13,4.89.83,4.4Z"/><path class="cls-4" d="m85.89,132.86c.86-.25,2.43-2.45.65-3.53s-2.43,4.04-.65,3.53Z"/><path class="cls-4" d="m85.82,126.28c.86-.25,2.43-2.45.65-3.53s-2.43,4.04-.65,3.53Z"/><path class="cls-4" d="m90.11,129.61c-1.79-1.08-2.43,4.04-.65,3.53.86-.25,2.43-2.45.65-3.53"/><path class="cls-4" d="m89.62,122.38c-1.79-1.08-2.43,4.04-.65,3.53.86-.25,2.43-2.45.65-3.53"/></g><g class="cls-3"><path class="cls-4" d="m132.41,137.18s2.28,4.04-.07,4.4-4.81-6.94.07-4.4Z"/><path class="cls-4" d="m128.17,132.01s-2.4-2.36-1.05-3.58,4.23-1.47,3.52,2.9c0,0-1.13,2.67-2.47.69Z"/><path class="cls-4" d="m127.44,126.17c1.07-.21.72-3.87-.81-4.4s-3.52,5.26.81,4.4Z"/><path class="cls-4" d="m150.29,128.09c1.11-.31.96-4.53-.57-5.05s-3.91,6.3.57,5.05Z"/><path class="cls-4" d="m125.71,128.91s2,2.92.04,2.61-2.83.27-2.43-1.47,2.39-1.14,2.39-1.14Z"/><path class="cls-4" d="m136.01,136.29c1.13-.38,2.24-3.84.72-4.73s-4.66,6.06-.72,4.73Z"/><path class="cls-4" d="m145.59,132.75c1.13-.38,2.24-3.84.72-4.73s-4.66,6.06-.72,4.73Z"/><path class="cls-4" d="m150.71,121.46c1.1-.3,2.05-3.33.52-4.18s-4.34,5.2-.52,4.18Z"/><path class="cls-4" d="m147.5,120.58c.8-.81.08-3.91-1.67-3.87-1.75.04-1.1,6.69,1.67,3.87Z"/><path class="cls-4" d="m133.78,127.69s2.1-.37,1.35-2.78-1.61-2.84-2.19-1.63-.13,4.89.83,4.4Z"/><path class="cls-4" d="m133.41,117.39c.86-.25,2.43-2.45.65-3.53s-2.43,4.04-.65,3.53Z"/><path class="cls-4" d="m133.34,110.82c.86-.25,2.43-2.45.65-3.53s-2.43,4.04-.65,3.53Z"/><path class="cls-4" d="m137.63,114.14c-1.79-1.08-2.43,4.04-.65,3.53.86-.25,2.43-2.45.65-3.53"/><path class="cls-4" d="m137.14,106.92c-1.79-1.08-2.43,4.04-.65,3.53.86-.25,2.43-2.45.65-3.53"/></g><g class="cls-3"><path class="cls-4" d="m16.76,86.69s2.28,4.04-.07,4.4-4.81-6.94.07-4.4Z"/><path class="cls-4" d="m12.52,81.52s-2.4-2.36-1.05-3.58,4.23-1.47,3.52,2.9c0,0-1.13,2.67-2.47.69Z"/><path class="cls-4" d="m11.79,75.68c1.07-.21.72-3.87-.81-4.4s-3.52,5.26.81,4.4Z"/><path class="cls-4" d="m34.65,77.61c1.11-.31.96-4.53-.57-5.05s-3.91,6.3.57,5.05Z"/><path class="cls-4" d="m10.06,78.43s2,2.92.04,2.61-2.83.27-2.43-1.47,2.39-1.14,2.39-1.14Z"/><path class="cls-4" d="m20.36,85.81c1.13-.38,2.24-3.84.72-4.73s-4.66,6.06-.72,4.73Z"/><path class="cls-4" d="m29.94,82.26c1.13-.38,2.24-3.84.72-4.73s-4.66,6.06-.72,4.73Z"/><path class="cls-4" d="m35.06,70.97c1.1-.3,2.05-3.33.52-4.18s-4.34,5.2-.52,4.18Z"/><path class="cls-4" d="m31.86,70.1c.8-.81.08-3.91-1.67-3.87-1.75.04-1.1,6.69,1.67,3.87Z"/><path class="cls-4" d="m18.13,77.2s2.1-.37,1.35-2.78-1.61-2.84-2.19-1.63-.13,4.89.83,4.4Z"/><path class="cls-4" d="m17.76,66.91c.86-.25,2.43-2.45.65-3.53s-2.43,4.04-.65,3.53Z"/><path class="cls-4" d="m17.7,60.33c.86-.25,2.43-2.45.65-3.53s-2.43,4.04-.65,3.53Z"/><path class="cls-4" d="m21.99,63.66c-1.79-1.08-2.43,4.04-.65,3.53.86-.25,2.43-2.45.65-3.53"/><path class="cls-4" d="m21.5,56.43c-1.79-1.08-2.43,4.04-.65,3.53.86-.25,2.43-2.45.65-3.53"/></g><g class="cls-3"><path class="cls-4" d="m31.86,147.27s2.28,4.04-.07,4.4-4.81-6.94.07-4.4Z"/><path class="cls-4" d="m27.62,142.1s-2.4-2.36-1.05-3.58,4.23-1.47,3.52,2.9c0,0-1.13,2.67-2.47.69Z"/><path class="cls-4" d="m26.89,136.26c1.07-.21.72-3.87-.81-4.4s-3.52,5.26.81,4.4Z"/><path class="cls-4" d="m49.75,138.18c1.11-.31.96-4.53-.57-5.05s-3.91,6.3.57,5.05Z"/><path class="cls-4" d="m25.16,139.01s2,2.92.04,2.61-2.83.27-2.43-1.47,2.39-1.14,2.39-1.14Z"/><path class="cls-4" d="m35.46,146.39c1.13-.38,2.24-3.84.72-4.73s-4.66,6.06-.72,4.73Z"/><path class="cls-4" d="m45.04,142.84c1.13-.38,2.24-3.84.72-4.73s-4.66,6.06-.72,4.73Z"/><path class="cls-4" d="m50.16,131.55c1.1-.3,2.05-3.33.52-4.18s-4.34,5.2-.52,4.18Z"/><path class="cls-4" d="m46.96,130.67c.8-.81.08-3.91-1.67-3.87-1.75.04-1.1,6.69,1.67,3.87Z"/><path class="cls-4" d="m33.23,137.78s2.1-.37,1.35-2.78-1.61-2.84-2.19-1.63-.13,4.89.83,4.4Z"/><path class="cls-4" d="m32.86,127.49c.86-.25,2.43-2.45.65-3.53s-2.43,4.04-.65,3.53Z"/><path class="cls-4" d="m32.8,120.91c.86-.25,2.43-2.45.65-3.53s-2.43,4.04-.65,3.53Z"/><path class="cls-4" d="m37.09,124.24c-1.79-1.08-2.43,4.04-.65,3.53.86-.25,2.43-2.45.65-3.53"/><path class="cls-4" d="m36.6,117.01c-1.79-1.08-2.43,4.04-.65,3.53.86-.25,2.43-2.45.65-3.53"/></g><path class="cls-1" d="m73.81,166.1s-3.39-6.19-5.01-8.58-2.3-4.58-3.16-6.43c-2.16-4.65-2.46-10.97-2.64-12.37s-.34-2.79-.34-2.79c0,0-.22,5.78.59,10.23s4.52,11.02,5.33,12.29,5.22,8.9,5.22,8.9v-1.25Z"/><path class="cls-2" d="m61.99,136.51s-1.13-2.15-.98-3.72.18-2.35.98-3.82c0,0-.69,6.19,0,6.58,0,0,.18.83.43.96s1.13-3.04,2.63-2.58c0,0-2.46,1.72-1.83,4.83,0,0,.03-1.09.98-1.72s2.38-.18,2.79.4c0,0-2.68-.43-3.66,1.77,0,0-.23,1.16-.98,1.09s-2.91-.63-3.54-.63c0,0,.73-.46,1.98-.48s-.28-1.14-.28-1.14c0,0-1.63-1.42-2.58.05s-1.41,3.67-1.41,3.67c0,0-.08-1.34.18-2.12s1.35-2.98,2.08-2.93,1.86.73,1.86.73c0,0-.58-1.16-1.23-1.39s-1.38-1.04-1.91-1.04c0,0,.85-.33,2.03.35s1.73,1.19,1.73,1.19c0,0-1.25-2.02-1.96-2.63,0,0,.9.03,1.88,1.44s.8,1.14.8,1.14Z"/><path class="cls-5" d="m63.01,143.01s-2.13-1.64-3.11-1.62-2.13.28-2.61.38,2.81.08,3.59.53,2.36,1.64,2.36,1.64l-.23-.94Z"/><path class="cls-5" d="m68.86,157.79s-2.13-1.64-3.11-1.62-2.13.28-2.61.38,2.81.08,3.59.53,2.36,1.64,2.36,1.64l-.23-.94Z"/><path class="cls-5" d="m64.36,147.64s2.13-1.64,3.11-1.62,2.13.28,2.61.38-2.81.08-3.59.53-2.36,1.64-2.36,1.64l.23-.94Z"/><path class="cls-5" d="m63.65,144.31s-1.67-1.02-2.44-1-1.67.17-2.05.23,2.21.05,2.82.33,1.85,1.02,1.85,1.02l-.18-.58Z"/><path class="cls-5" d="m70.4,160.31s-1.67-1.02-2.44-1-1.67.17-2.05.23,2.21.05,2.82.33,1.85,1.02,1.85,1.02l-.18-.58Z"/><path class="cls-5" d="m63.24,144.55s-2.08-.58-3,.33c0,0,2.9-.05,3.17.33s-.18-.66-.18-.66Z"/><path class="cls-5" d="m71.6,163.21s-4.77-.99-6.87.56c0,0,6.64-.09,7.28.56s-.4-1.12-.4-1.12Z"/><path class="cls-5" d="m67.38,155.05s2.26-2.16,3.89-2.14c0,0-3.61,2.29-3.75,2.83s-.14-.69-.14-.69Z"/><path class="cls-5" d="m63.09,146.04s-3.26-.93-5.84-.02c0,0,3.84-.39,6.33.68.79.34-.49-.66-.49-.66Z"/><path class="cls-5" d="m66.81,154.51s1.26-4.01,4.55-5.06c0,0-3.55,2.81-4.02,6.33-.15,1.12-.53-1.27-.53-1.27Z"/><path class="cls-5" d="m66.99,155.45s-3.26-.93-5.84-.02c0,0,3.84-.39,6.33.68.79.34-.49-.66-.49-.66Z"/><path class="cls-5" d="m63.62,142.84c-.69,1.41-.23-.78-.23-.78,0,0-.1-.68,2.26-.73"/><path class="cls-5" d="m70.44,159.83c-.69,1.41-.23-.78-.23-.78,0,0-.1-.68,2.26-.73"/><path class="cls-5" d="m65.68,148.54c-2.82,1.16-.93-.64-.93-.64,0,0-.41-.56,9.29-.6"/><path class="cls-5" d="m63.71,149.32c1.97-.16,0-.83,0-.83,0,0-.18-.58-4.44,2.97"/><path class="cls-5" d="m64.81,152.59c2.41-.24.01-1.01.01-1.01,0,0-.2-.7-5.49,3.71"/><path class="cls-5" d="m64.63,145.84c-1.63,2.16-.99-.07-.99-.07,0,0-.56-.24,6.8-4.66"/><path class="cls-5" d="m64.73,149.01s-3.11-3.11-6.51-1.98c0,0,2.5-.05,3.25.38s3.15,2.2,3.25,1.61Z"/><path class="cls-5" d="m61.05,141.5c-.69,1.41-.23-.78-.23-.78,0,0-.1-.68,2.26-.73"/><path class="cls-5" d="m71.02,162.75s-3.26-.93-5.84-.02c0,0,3.84-.39,6.33.68.79.34-.49-.66-.49-.66Z"/><path class="cls-5" d="m71.71,161.77s3.08-3.28,6.44-4.52c0,0-4.46,2.64-6.61,5.44-.68.89.17-.92.17-.92Z"/><g class="cls-3"><path class="cls-4" d="m60.18,114.09s1.77,3.01-.05,3.28-3.74-5.18.05-3.28Z"/><path class="cls-4" d="m56.89,110.23s-1.87-1.76-.82-2.67,3.28-1.1,2.73,2.16c0,0-.88,2-1.92.51Z"/><path class="cls-4" d="m56.32,105.87c.83-.16.56-2.89-.63-3.28s-2.73,3.92.63,3.28Z"/><path class="cls-4" d="m74.07,107.31c.86-.23.75-3.38-.44-3.77s-3.03,4.7.44,3.77Z"/><path class="cls-4" d="m54.98,107.92s1.56,2.18.03,1.95-2.2.2-1.89-1.1,1.85-.85,1.85-.85Z"/><path class="cls-4" d="m62.98,113.43c.88-.29,1.74-2.87.56-3.53s-3.62,4.52-.56,3.53Z"/><path class="cls-4" d="m70.42,110.78c.88-.29,1.74-2.87.56-3.53s-3.62,4.52-.56,3.53Z"/><path class="cls-4" d="m74.39,102.36c.85-.22,1.59-2.48.4-3.12s-3.37,3.88-.4,3.12Z"/><path class="cls-4" d="m71.9,101.7c.62-.61.06-2.91-1.3-2.88s-.86,4.99,1.3,2.88Z"/><path class="cls-4" d="m61.25,107.01s1.63-.28,1.05-2.07-1.25-2.12-1.7-1.21-.1,3.65.65,3.29Z"/><path class="cls-4" d="m60.96,99.32c.67-.18,1.89-1.83.5-2.63s-1.89,3.02-.5,2.63Z"/><path class="cls-4" d="m60.91,94.42c.67-.18,1.89-1.83.5-2.63s-1.89,3.02-.5,2.63Z"/><path class="cls-4" d="m64.24,96.9c-1.39-.81-1.89,3.02-.5,2.63.67-.18,1.89-1.83.5-2.63"/><path class="cls-4" d="m63.86,91.51c-1.39-.81-1.89,3.02-.5,2.63.67-.18,1.89-1.83.5-2.63"/></g><g class="cls-3"><path class="cls-4" d="m116,82.56s1.77,3.01-.05,3.28-3.74-5.18.05-3.28Z"/><path class="cls-4" d="m112.71,78.7s-1.87-1.76-.82-2.67,3.28-1.1,2.73,2.16c0,0-.88,2-1.92.51Z"/><path class="cls-4" d="m112.14,74.35c.83-.16.56-2.89-.63-3.28s-2.73,3.92.63,3.28Z"/><path class="cls-4" d="m129.89,75.78c.86-.23.75-3.38-.44-3.77s-3.03,4.7.44,3.77Z"/><path class="cls-4" d="m110.8,76.39s1.56,2.18.03,1.95-2.2.2-1.89-1.1,1.85-.85,1.85-.85Z"/><path class="cls-4" d="m118.8,81.9c.88-.29,1.74-2.87.56-3.53s-3.62,4.52-.56,3.53Z"/><path class="cls-4" d="m126.24,79.26c.88-.29,1.74-2.87.56-3.53s-3.62,4.52-.56,3.53Z"/><path class="cls-4" d="m130.21,70.83c.85-.22,1.59-2.48.4-3.12s-3.37,3.88-.4,3.12Z"/><path class="cls-4" d="m127.73,70.18c.62-.61.06-2.91-1.3-2.88s-.86,4.99,1.3,2.88Z"/><path class="cls-4" d="m117.07,75.48s1.63-.28,1.05-2.07-1.25-2.12-1.7-1.21-.1,3.65.65,3.29Z"/><path class="cls-4" d="m116.78,67.8c.67-.18,1.89-1.83.5-2.63s-1.89,3.02-.5,2.63Z"/><path class="cls-4" d="m116.73,62.89c.67-.18,1.89-1.83.5-2.63s-1.89,3.02-.5,2.63Z"/><path class="cls-4" d="m120.06,65.37c-1.39-.81-1.89,3.02-.5,2.63.67-.18,1.89-1.83.5-2.63"/><path class="cls-4" d="m119.68,59.98c-1.39-.81-1.89,3.02-.5,2.63.67-.18,1.89-1.83.5-2.63"/></g></g></svg>