<?xml version="1.0" encoding="UTF-8"?><svg id="Layer_2" xmlns="http://www.w3.org/2000/svg" viewBox="0 0 159.64 170.56"><defs><style>.cls-1,.cls-2,.cls-3{isolation:isolate;}.cls-1,.cls-4{fill:#49433e;stroke:#7b6a58;stroke-miterlimit:10;}.cls-2{fill:#aa8b41;stroke-width:0px;}</style></defs><g id="Layer_1-2"><path class="cls-2" d="m93.83,169.25s-7.28-17.73-21.37-28.19-30.01-24.1-35.01-30.92c0,0-15.91,2.73-22.73-.45S1.98,96.95.16,94.68s12.28,11.37,14.1,8.64-4.55-15.46-8.18-17.28c0,0,11.37,3.64,14.55,12.28,0,0,7.28,3.64,8.18.91s-6.37-16.37-9.55-19.55-10.95-14.54-10.74-19.78,1.61-7.85,1.61-7.85c0,0-.6,8.26,3.83,12.89s8.46,13.9,10.67,13.9-4.03-15.1-3.42-18.53,10.07,18.33,11.68,18.33,6.85-8.26,7.65-14.5,0-13.49,0-14.9,4.03,5.84,2.42,15.91.2,13.29-.6,20.34,2.82,15.91,14.7,24.17,25.17,17.72,24.97,17.92-.6-36.25-.6-36.25c0,0-17.32-13.29-20.14-29.4s-11.15-28.05-12.48-30.4-5.92-8.68-5.51-11.74,5.21,7.56,9.29,13.68-.2-10.31-1.53-14.19-2.04-6.84-2.04-6.84c0,0,7.76,12.66,7.25,16.64s.61-13.78-.51-15.21,4.9,4.9,3.78,15.42,12.15,31.75,16.64,36.96,0,4.9,16.23,19.5c0,0,16.66-26.84,19.02-38.46s-.39-35.06-1.58-39.59-.59-6.3-.59-6.3c0,0,7.09,19.5,11.23,18.71s12.6-11.62,9.45-20.09c0,0,7.29,9.06.2,24.82s-5.32,23.04-5.32,23.04c0,0,14.77-13.59,17.13-18.71s3.74-15.76,3.74-15.76c0,0,4.33,3.74,3.94,16.35,0,0,8.47-5.71,9.26-10.44s3.15,10.24-7.88,23.04-11.23,3.94-21.86,16.35-20.48,19.3-25.01,34.27-3.55,42.34-.2,49.83,15.76,27.77,15.76,27.77l-25.86-1.31Z"/><g class="cls-3"><path class="cls-1" d="m102.42,167.58s-30.99-43.33-45.14-50.25S10.94,67.08,10.94,65.87s29.49,36.41,38.52,42.13,41.22,30.39,44.53,38.52,11.43,21.36,8.43,21.06Z"/><path class="cls-4" d="m97.6,167.58s-12.04-41.22-8.73-60.78,13.84-30.69,19.56-40.92,10.83-44.83,9.03-48.45.9,6.02,6.02,1.5-7.52,43.03-13.54,54.16-19.56,18.36-16.55,38.21,7.82,57.47,6.92,57.47-2.71-1.2-2.71-1.2Z"/><path class="cls-4" d="m53.37,21.64s16.46,44.25,24.98,51.76c17.75,15.65,13.54,48.14,13.54,48.14,0,0,1.5-10.23-3.61-21.67-8.19-18.3-28.89-41.52-34.91-78.24Z"/></g></g></svg>