<?xml version="1.0" encoding="UTF-8"?><svg xmlns="http://www.w3.org/2000/svg" xmlns:xlink="http://www.w3.org/1999/xlink" viewBox="0 0 121.18 163.43"><defs><style>.cls-1{fill:none;stroke:#432918;stroke-miterlimit:10;stroke-width:1.09px;}.cls-2{fill:url(#linear-gradient);}.cls-2,.cls-3,.cls-4,.cls-5,.cls-6,.cls-7,.cls-8,.cls-9,.cls-10,.cls-11,.cls-12,.cls-13,.cls-14,.cls-15,.cls-16{stroke-width:0px;}.cls-2,.cls-17,.cls-18{isolation:isolate;}.cls-3{fill:url(#linear-gradient-11);}.cls-4{fill:url(#linear-gradient-12);}.cls-5{fill:url(#linear-gradient-13);}.cls-6{fill:url(#linear-gradient-10);}.cls-7{fill:url(#linear-gradient-15);}.cls-8{fill:url(#linear-gradient-14);}.cls-19{opacity:.6;}.cls-9{fill:url(#linear-gradient-4);}.cls-10{fill:url(#linear-gradient-2);}.cls-11{fill:url(#linear-gradient-3);}.cls-12{fill:url(#linear-gradient-8);}.cls-13{fill:url(#linear-gradient-9);}.cls-14{fill:url(#linear-gradient-7);}.cls-15{fill:url(#linear-gradient-5);}.cls-16{fill:url(#linear-gradient-6);}.cls-18{mix-blend-mode:darken;}</style><linearGradient id="linear-gradient" x1="140.21" y1="176.26" x2="140.21" y2="321.47" gradientTransform="translate(3.17 -209.7) rotate(20.27)" gradientUnits="userSpaceOnUse"><stop offset="0" stop-color="#cda634"/><stop offset=".18" stop-color="#c9a233"/><stop offset=".34" stop-color="#be9931"/><stop offset=".5" stop-color="#ac892e"/><stop offset=".64" stop-color="#93722a"/><stop offset=".78" stop-color="#735524"/><stop offset=".85" stop-color="#624622"/></linearGradient><linearGradient id="linear-gradient-2" x1="147.07" y1="281.72" x2="160.77" y2="281.72" gradientTransform="translate(3.17 -209.7) rotate(20.27)" gradientUnits="userSpaceOnUse"><stop offset="0" stop-color="#b17f4a"/><stop offset=".15" stop-color="#ad7c48"/><stop offset=".29" stop-color="#a27442"/><stop offset=".41" stop-color="#906739"/><stop offset=".54" stop-color="#77552c"/><stop offset=".62" stop-color="#624622"/></linearGradient><linearGradient id="linear-gradient-3" x1="130.37" y1="259.33" x2="143.56" y2="259.33" xlink:href="#linear-gradient-2"/><linearGradient id="linear-gradient-4" x1="119.69" y1="244.99" x2="130.19" y2="244.99" xlink:href="#linear-gradient-2"/><linearGradient id="linear-gradient-5" x1="185.23" y1="225.97" x2="195.73" y2="225.97" xlink:href="#linear-gradient-2"/><linearGradient id="linear-gradient-6" x1="121.86" y1="263.74" x2="132.18" y2="263.74" xlink:href="#linear-gradient-2"/><linearGradient id="linear-gradient-7" x1="156.67" y1="263.13" x2="165.28" y2="263.13" xlink:href="#linear-gradient-2"/><linearGradient id="linear-gradient-8" x1="179.67" y1="243.42" x2="188.29" y2="243.42" xlink:href="#linear-gradient-2"/><linearGradient id="linear-gradient-9" x1="182.3" y1="207.54" x2="190.91" y2="207.54" xlink:href="#linear-gradient-2"/><linearGradient id="linear-gradient-10" x1="169.41" y1="210.8" x2="179.67" y2="210.8" xlink:href="#linear-gradient-2"/><linearGradient id="linear-gradient-11" x1="141.72" y1="240.8" x2="151.3" y2="240.8" xlink:href="#linear-gradient-2"/><linearGradient id="linear-gradient-12" x1="131.87" y1="214.34" x2="139.13" y2="214.34" xlink:href="#linear-gradient-2"/><linearGradient id="linear-gradient-13" x1="124.94" y1="196.13" x2="132.2" y2="196.13" xlink:href="#linear-gradient-2"/><linearGradient id="linear-gradient-14" x1="142.12" y1="211.44" x2="149.38" y2="211.44" xlink:href="#linear-gradient-2"/><linearGradient id="linear-gradient-15" x1="133.33" y1="191.85" x2="140.6" y2="191.85" xlink:href="#linear-gradient-2"/></defs><g class="cls-17"><g id="Layer_2"><g id="Layer_1-2"><path class="cls-2" d="m56.05,157.51s1.16-9.05-.95-13.22-10.19-5.3-9.73-9.83c.46-4.53-6.12-24.2-11.14-31.65-5.02-7.44-13.55-15.94-10.78-23.42,2.76-7.48,2.67-9.21,1.92-10.46S-.03,46.92,0,41.58c.03-5.33,1.57-10.84,9.03-2.74,7.45,8.1,4.12,8.57,7.54,9.83,3.42,1.26-8.16-10.79-7.36-15.59.8-4.8,5.07-5.17,7.51-2.57s11.85,23.81,14.28,24.47-.86,4.3,3.92,5.82c4.78,1.52,1.78-12.7,1.6-16.17s-4.67-16.3-6.18-20.75c-1.52-4.45.35-10.8,6.93-6.92,6.58,3.89,7.15,29.6,7.79,34.94s.1,29.19,2.45,30.05c2.35.87,3.03-6.9,4.11-11.11,1.07-4.22,2.46-20.47,1.54-23.24-.92-2.77-4.58-7.04-1.86-12.59,2.73-5.55-1.08-10.36-.77-15.83.32-5.47-.81-5.04,2.72-15.27,3.54-10.23,7.48,2.76,7.48,2.76,0,0,4.9-9.97,9.17.83,0,0-1.06,1.55-1.32,7.53-.26,5.98-2.69,5.32-1.63,10.33s4.26,8.86,3.52,11.5-6.02,16.97-4.18,22.5c1.84,5.54,5.29,1.47,4.29,10.09-1,8.62-.64,18.17,1.41,23.81,2.04,5.64-1.62,14.25.92,15.92s3.52,11.5,6.3,12.53c2.78,1.03,6.5-7.07,7.29-9.21.79-2.14,5.34-15.76,3.85-18.98-1.48-3.22-3.72-7.69-1.43-13.89,2.29-6.2,2.9-11.8,2.94-15.19.04-3.39.14-8.94-3.18-11.13-3.32-2.2-10.41-12.59-10.49-18.94-.08-6.35-.4-16.67,6.39-12.7,0,0,5.92,15.55,5.91,20.16,0,4.61,3.79,5.53,5.25,4.85s-3.54-8.84-4.17-18.3.14-15.51,2.98-15.3c2.84.21,8.08,3.12,6.92,5.6-1.16,2.49,2.9,8.6,2.78,12.2s-1.34,10.19-.7,10.43,4.47-6.85,4.67-10.66-.04-11.06,2.24-11.98,6.32,1.3,4.08,6.06c0,0,8.17-3.05,6.37,3.81-1.81,6.86-9.38,22.77-14.56,26.93-5.18,4.16-.46,14.4-1.35,24.04-.89,9.63-5.55,20.3-8.68,23.51-3.13,3.22-9.29,15.27-10.92,19.04-1.63,3.77-9.59,13.46-10.95,17.82-1.37,4.35,3.79,5.53-2.38,23.53l-16.03-5.92Z"/><g class="cls-19"><path class="cls-1" d="m67.22,160.3s-.28-24.4-6.64-30.87c-.51-.52-1-1.1-1.45-1.71-5.16-6.95-6.61-18.85-6.61-18.85"/><path class="cls-1" d="m64.29,95.08s3.76,20.27-5.15,32.63"/><path class="cls-1" d="m60.24,95.52s-2.03,10.26,1.04,14.48c0,0-3.46,15.48-5.21,14.11"/><path class="cls-1" d="m94.35,52.48s5.06,10.64,3.81,27.18c-1.25,16.54-7.36,31.8-7.36,31.8"/><path class="cls-1" d="m61.61,158.23s19.34-34.91,24.26-40.83l8.22-15.94"/><path class="cls-1" d="m41.16,78.53s-.68-28.47-1.97-34.03c-1.29-5.56-5.04-28.36-6.27-28.26"/><path class="cls-1" d="m57.57,65.88c2.1-5.06-.18-27.06-.18-27.06,1.75-4.73-1.56-19.99-1.56-19.99,0,0-1.64-13.47.13-16.94"/><path class="cls-1" d="m65.38,3.43s-3.85,20.25-3.6,23.48c.26,3.22,5.95,9.64,3.84,14.96s-2.08,19.61.28,22.82c2.36,3.2,4.01,8.92,4.01,8.92"/><path class="cls-1" d="m12.07,30.61s4.72,10.24,5.5,14.04c.78,3.8,8.57,13.62,8.57,13.62,0,0-6.25-4.13-8.92-6.09s-9.66-8.69-12.04-12.11l-2.38-3.42"/></g><g class="cls-18"><path class="cls-10" d="m52.67,102.21s6.75,11.97-.2,13.04c-6.96,1.07-14.26-20.57.2-13.04Z"/><path class="cls-11" d="m40.11,86.88s-7.13-7.01-3.12-10.63c4.01-3.62,12.54-4.36,10.43,8.59,0,0-3.34,7.93-7.31,2.04Z"/><path class="cls-9" d="m37.93,69.57c3.18-.63,2.13-11.49-2.4-13.04s-10.44,15.58,2.4,13.04Z"/><path class="cls-15" d="m105.69,75.27c3.29-.92,2.85-13.44-1.69-14.98-4.54-1.53-11.58,18.68,1.69,14.98Z"/><path class="cls-16" d="m32.81,77.71s5.94,8.66.13,7.74c-5.81-.92-8.39.8-7.21-4.36,1.17-5.15,7.08-3.38,7.08-3.38Z"/><path class="cls-14" d="m63.35,99.6c3.36-1.14,6.64-11.4,2.14-14.03-4.49-2.63-13.81,17.97-2.14,14.03Z"/><path class="cls-12" d="m91.76,89.08c3.36-1.14,6.64-11.4,2.14-14.03-4.49-2.63-13.81,17.97-2.14,14.03Z"/><path class="cls-13" d="m106.92,55.61c3.26-.87,6.07-9.87,1.54-12.39-4.53-2.52-12.87,15.43-1.54,12.39Z"/><path class="cls-6" d="m97.43,53c2.37-2.41.23-11.58-4.96-11.46-5.19.12-3.26,19.82,4.96,11.46Z"/><path class="cls-3" d="m56.74,74.08s6.24-1.1,4.01-8.24c-2.22-7.14-4.78-8.42-6.48-4.82s-.38,14.5,2.46,13.06Z"/><path class="cls-4" d="m55.64,43.55c2.56-.73,7.21-7.26,1.91-10.47-5.29-3.21-7.2,11.99-1.91,10.47Z"/><path class="cls-5" d="m55.45,24.06c2.56-.73,7.21-7.26,1.91-10.47-5.29-3.21-7.2,11.99-1.91,10.47Z"/><path class="cls-8" d="m68.17,33.92c-5.29-3.21-7.2,11.99-1.91,10.47,2.56-.73,7.21-7.26,1.91-10.47"/><path class="cls-7" d="m66.72,12.49c-5.29-3.21-7.2,11.99-1.91,10.47,2.56-.73,7.21-7.26,1.91-10.47"/></g></g></g></g></svg>