<?xml version="1.0" encoding="UTF-8"?><svg id="Layer_2" xmlns="http://www.w3.org/2000/svg" viewBox="0 0 145.35 145.64"><defs><style>.cls-1{isolation:isolate;}.cls-2{fill:#4f6d82;stroke-width:0px;}</style></defs><g id="Layer_1-2"><g class="cls-1"><path class="cls-2" d="m145.26,73.22c-.02,41.54-31.13,72.43-72.92,72.41C31.2,145.62-.08,113.94,0,72.38.08,31.55,32.16.37,73.5,0c38.42-.34,73.83,33.45,71.76,73.22Zm-106,8.33s.03,0,.04,0c0,7.25-.17,14.5.04,21.74.28,9.28,5.2,14.34,14.47,14.53,12.53.25,25.08.26,37.62-.01,9.18-.2,14.16-5.38,14.37-14.64.21-9.66.14-19.33.05-28.99-.08-9.72,2.16-20.13-7.59-27.19-.49-.35-.72-1.3-.77-1.98-.3-4.4-2.98-5.5-6.9-5.47-12.06.09-24.11.02-36.17.06-1.9,0-4.41-.32-5.29,1.58-3.96,8.61-12.63,15.31-10.04,26.64,1,4.36.16,9.14.16,13.73Zm33.95-53.71s0-.02,0-.03c-6.24,0-12.49-.12-18.73.06-2.66.07-6.65-.78-6.56,3.5.07,3.29,3.44,3.59,6.13,3.6,12.73.05,25.46.05,38.19,0,2.43-.01,5.4-.21,5.49-3.33.12-3.7-3.18-3.71-5.79-3.76-6.24-.12-12.49-.04-18.73-.04Z"/><path class="cls-2" d="m102.81,82.26c0,6.28.33,12.58-.08,18.83-.57,8.76-5.12,13.31-13.84,13.59-11.08.35-22.18.33-33.25.04-8.44-.22-13.25-5.26-13.4-13.89-.22-12.79-.28-25.6.01-38.39.23-10.04,9.82-18.88,19.83-18.9,5.78,0,11.57,0,17.35,0,15.32,0,23.25,7.92,23.48,23.52.07,5.07.01,10.14.01,15.21-.04,0-.08,0-.11,0Zm-7.14.06c-.24-1.23-.64-4.09-1.36-6.86-.73-2.81-2.25-3.23-4.76-1.48-8.61,5.99-13.51,22.58-9.51,32.02,1.39,3.27,2.9,3.55,5.16,1.08,6-6.55,10.42-13.83,10.46-24.76Zm-20.3,23.08c-.02-9.55-12.66-24.49-21.72-25.83-3.78-.56-3.26,1.73-2.86,3.98,2.08,11.9,8.91,20.07,19.72,25.1,3.37,1.57,5.09.61,4.86-3.25Z"/></g></g></svg>