<?xml version="1.0" encoding="UTF-8"?><svg id="Layer_2" xmlns="http://www.w3.org/2000/svg" viewBox="0 0 86.42 89.54"><defs><style>.cls-1{isolation:isolate;}.cls-2{fill:#4f6d82;stroke-width:0px;}</style></defs><g id="Layer_1-2"><g class="cls-1"><path class="cls-2" d="m21.2,56.35c-9.24-7.46-9.49-8.87-3.32-16.11,2.72-3.19,7.8-3.29,11.06-.22,4.37,4.11,3.49,9.84-2.91,16.77,4.76.7,9.28,1.4,13.67,1.77,6.83.58,13.71,1.39,20.71.23,7.07-1.17,14.34.3,21.57-.46,4.39-.46,5.76,2.76,3.03,6.98-8.89,13.72-20.78,22.82-37.73,24.07-22.52,1.66-36.77-9.98-46.08-28.01-2.24-4.33-1.49-5.68,3.37-5.76,5.29-.09,10.59.44,16.63.74Zm19.91,7.15c-2.06-2.01-4.36-2.47-6.69-2.89-7.34-1.34-7.77-1.08-7.89,6.11-.04,2.53-1.4,3.01-3.39,2.95-2-.06-3.01-1.05-2.63-3.15.26-1.46.54-2.91.79-4.37.12-.72.33-1.55-.46-1.97-.79-.41-1.42.18-1.92.71-3.04,3.2-5.05,6.96-5.46,11.39-.29,3.14,4.82,6.75,6.06,4.68,1.73-2.89,5.43-1.92,6.72-4.73.25-.56,1.14-1.01,1.38-.29,1.25,3.65,1.77,1.14,2.49-.22.27-.52.6-1,1.32-.47,2.97,2.17,6.38,3.16,9.95,3.87,2.2.44,4.06.98,3.51,4.37-.36,2.19,3.68,3.48,2.96,6.52.42.09.86.31,1.26.26,5.97-.83,11.77-2.16,17.24-6.09-3.11-1.95-6.09-2.72-8.97-3.72-1.69-.58-4.01-1.05-4.35-2.73-.95-4.72-3.99-3.62-7.08-3.27-1.57.18-3.28.02-4.81-.4-2.06-.56-5.06-.79-5.17-3.36-.11-2.66,3.26-1.78,5.13-3.21Z"/><path class="cls-2" d="m66.23,18.81c.24,3.55-.93,7.01-2.52,10.42-3.83,8.21-8.49,15.92-13.48,23.46-1.75,2.65-3.26,3.23-5.19.17-5.39-8.5-10.95-16.89-14.69-26.3-4-10.04-.49-20.02,8.67-24.61,8.99-4.5,20.1-.98,25.39,8.02,1.56,2.66,1.88,5.57,1.82,8.83Zm-18.81,4.39c3.08.03,5.99-2.74,6.12-5.82.15-3.62-2.29-6.19-5.94-6.25-3.7-.06-6.18,2.4-6.12,6.06.05,3.16,2.84,5.98,5.94,6.01Z"/></g></g></svg>