<?xml version="1.0" encoding="UTF-8"?><svg id="Layer_2" xmlns="http://www.w3.org/2000/svg" viewBox="0 0 165.02 164.72"><defs><style>.cls-1{isolation:isolate;}.cls-2{fill:#4f6d82;stroke-width:0px;}</style></defs><g id="Layer_1-2"><g class="cls-1"><path class="cls-2" d="m82.15,164.72C35.4,164.65-.04,128.94,0,81.95.04,35.12,35.62-.06,82.87,0c46.75.06,82.2,35.78,82.15,82.76-.04,46.84-35.62,82.02-82.87,81.95Zm1.83-32.84c-.29-5.42-.23-8.4-.64-11.32-2.17-15.42-6.42-19.76-21.88-21.28-6.5-.64-13.21-.88-19.63.04-6.81.98-16.92-.9-19.48,5.45-3.37,8.34,3.58,16.36,8.57,23.57.46.67,1.11,1.2,1.67,1.8,21.1,22.34,59.25,27.34,87.07,11.47,12.15-6.93,20.57-16.8,24.99-30.16,1.9-5.75.56-9.17-5.33-11.38-15.08-5.66-29.94-5.04-44.85.45-3.63,1.34-5.14,3.39-4.42,7.44,1.4,7.87-1.17,14.93-6.08,23.91Zm-4.89-98.02c-.29-17.7-1.96-18.93-17.35-13.76-2.06.69-4.18,1.33-6.09,2.34-5.45,2.88-8.86,14.97-5.51,22.83,2.92,6.86,8.39,1.05,12.68,1.18,2.11.06,4.22-1.15,6.37-1.32,7.77-.63,11.5-4.33,9.9-11.26Zm35.94,3.81c-.07-12.38-11.45-22.02-23.98-20.43-3.02.38-4.03,2.33-4.71,4.84-4.07,14.92-.78,20.46,14.38,24.1.8.19,1.59.39,2.39.58,10.64,2.56,11.99,1.54,11.93-9.1Zm5.67,3.96c-1.19,11.37,8.22,12.03,15.24,14.98,1.9.8,4.26,2.47,5.98.26,1.51-1.93.09-4.28-.9-6.13-3.37-6.28-7.82-11.78-12.75-16.91-3.71-3.87-5.96-3.23-6.69,2.16-.26,1.89-.59,3.76-.88,5.64Zm-77.63-1.57c-.06-.86,0-3.35-.46-5.74-.54-2.85-2.46-3.76-4.71-1.71-6.08,5.54-11.95,11.34-15.21,19.09-1.03,2.44-.99,4.97,2.63,5.49,8.17,1.18,17.73-7.18,17.75-17.13Z"/></g></g></svg>