<?xml version="1.0" encoding="UTF-8"?><svg id="Layer_2" xmlns="http://www.w3.org/2000/svg" viewBox="0 0 210.02 210.02"><defs><style>.cls-1{isolation:isolate;}.cls-2{fill:#4f6d82;stroke-width:0px;}</style></defs><g id="Layer_1-2"><g class="cls-1"><rect class="cls-2" x="101.36" y="0" width="7.55" height="210.02" rx="3.77" ry="3.77"/><rect class="cls-2" x="101.24" y="-.58" width="7.55" height="210.02" rx="3.77" ry="3.77" transform="translate(209.44 -.58) rotate(90)"/><path class="cls-2" d="m173.99,151.64l13.3-12.96-16.07-2.34,3.53-15.32-16.21,7.38-8.16-16.54-7.34,14.88-13.84-8.31,2,17.67-17.73,2.58,11.69,11.4-12.51,10.87,17.91,3.65-3,17.47,14-7.36,6.42,15.11,9.17-16.19,16.04,8.43-2.66-15.53,15.83-1.39-12.36-13.51Zm-24.02,16.84c-9.74,0-17.64-7.9-17.64-17.64s7.9-17.64,17.64-17.64,17.64,7.9,17.64,17.64-7.9,17.64-17.64,17.64Z"/><path class="cls-2" d="m61.91,170.24s-1.33,13.11-4.75,16.91,6.84,7.79,7.79-6.08c.95-13.87-.76-14.06-.76-14.06l14.82.19-6.08-8.17s11.4-11.21,18.44-11.4c0,0-3.42-1.52-9.31-3.8,0,0,2.09-8.93,5.51-11.21s-7.22,0-11.97,3.23c0,0-2.09-9.5-1.52-12.35s-5.13,8.36-5.51,11.21-4.37-14.44-3.23-16.91-3.99,6.08-7.22,6.27-9.12-6.84-10.26-7.98c0,0,.57,12.73.19,13.3s-11.97,1.14-13.11.57,6.08,8.36,10.07,9.12-5.32,2.85-11.4-1.52c0,0,4.94,8.36,3.42,10.07s-10.83,6.65-14.44,6.65c0,0,9.12,6.84,13.68,5.13s0,7.41-5.32,12.35c0,0,14.06-.19,17.87-5.89s1.52,10.45,1.52,10.45c0,0,9.31-2.85,11.59-6.08Z"/><path class="cls-2" d="m134.61,80.7c-8.31-11.2-5.06-7.95-8.85-13.73-3.79-5.78,1.99-24.93,5.6-28.9,0,0,8,14.59,9.03,17.34,3.79,10.12-5.78,25.29-5.78,25.29Z"/><path class="cls-2" d="m147.62,62.09s-1.08-24.57,15.36-28.72c0,0,2.17,7.59.36,11.38s-11.56,16.62-15.72,17.34Z"/><path class="cls-2" d="m139.67,83.23s9.39-14.27,18.43-15.9c9.03-1.63,25.83,1.45,30.71,1.26,0,0-9.57,11.92-17.34,14.45s-26.01,3.79-31.79.18Z"/><polygon class="cls-2" points="60.28 29.68 63.72 25.84 65.26 27.76 61.35 31.99 61.35 38.39 65.15 35.35 66.47 37.01 61.41 41.53 61.41 54.36 58.68 54.36 58.68 41.53 53.62 37.01 54.94 35.35 58.74 38.39 58.74 31.99 54.83 27.76 56.37 25.84 59.81 29.68 60.28 29.68"/><polygon class="cls-2" points="60.28 82.79 63.72 86.63 65.26 84.71 61.35 80.48 61.35 74.08 65.15 77.12 66.47 75.46 61.41 70.94 61.41 58.11 58.68 58.11 58.68 70.94 53.62 75.46 54.94 77.12 58.74 74.08 58.74 80.48 54.83 84.71 56.37 86.63 59.81 82.79 60.28 82.79"/><polygon class="cls-2" points="41.59 37.62 41.47 32.46 43.91 32.81 43.94 38.57 48.32 43.24 49.01 38.43 51.11 38.74 50.51 45.49 59.28 54.85 57.29 56.72 48.52 47.35 41.74 47.52 41.56 45.4 46.42 45.03 42.04 40.35 36.29 39.95 36.11 37.49 41.24 37.94 41.59 37.62"/><polygon class="cls-2" points="41.59 75.33 41.47 80.49 43.91 80.14 43.94 74.38 48.32 69.71 49.01 74.53 51.11 74.22 50.51 67.46 59.28 58.1 57.29 56.24 48.52 65.6 41.74 65.43 41.56 67.55 46.42 67.93 42.04 72.6 36.29 73.01 36.11 75.46 41.24 75.01 41.59 75.33"/><polygon class="cls-2" points="33.33 56.14 29.44 52.76 31.34 51.19 35.62 55.04 42.02 54.94 38.93 51.19 40.57 49.85 45.16 54.84 57.99 54.65 58.03 57.37 45.2 57.56 40.76 62.69 39.08 61.39 42.06 57.55 35.66 57.64 31.49 61.62 29.55 60.11 33.34 56.61 33.33 56.14"/><polygon class="cls-2" points="78.25 37.62 78.36 32.46 75.93 32.81 75.89 38.57 71.51 43.24 70.82 38.43 68.72 38.74 69.33 45.49 60.55 54.85 62.54 56.72 71.32 47.35 78.09 47.52 78.27 45.4 73.42 45.03 77.79 40.35 83.54 39.95 83.73 37.49 78.59 37.94 78.25 37.62"/><polygon class="cls-2" points="78.25 75.33 78.36 80.49 75.93 80.14 75.89 74.38 71.51 69.71 70.82 74.53 68.72 74.22 69.33 67.46 60.55 58.1 62.54 56.24 71.32 65.6 78.09 65.43 78.27 67.55 73.42 67.93 77.79 72.6 83.54 73.01 83.73 75.46 78.59 75.01 78.25 75.33"/><polygon class="cls-2" points="86.5 56.14 90.39 52.76 88.49 51.19 84.21 55.04 77.81 54.94 80.91 51.19 79.26 49.85 74.68 54.84 61.85 54.65 61.81 57.37 74.64 57.56 79.07 62.69 80.76 61.39 77.77 57.55 84.17 57.64 88.34 61.62 90.28 60.11 86.49 56.61 86.5 56.14"/><circle class="cls-2" cx="59.92" cy="56.24" r="5.68"/></g></g></svg>