<?xml version="1.0" encoding="UTF-8"?><svg id="Layer_2" xmlns="http://www.w3.org/2000/svg" viewBox="0 0 95.59 95.64"><defs><style>.cls-1{stroke:#fff;stroke-miterlimit:10;}.cls-1,.cls-2{fill:#4f6d82;}.cls-3{isolation:isolate;}.cls-2{stroke-width:0px;}</style></defs><g id="Layer_1-2"><g class="cls-3"><g id="IQVNr9.tif"><path class="cls-2" d="m47.86,95.59c-1.43,0-2.86-.07-4.29.01-4.44.27-8.59-1-12.61-2.58-3.78-1.49-7.43-3.31-10.77-5.7-5.37-3.83-9.81-8.48-13.22-14.14-2.72-4.51-4.69-9.32-6.06-14.39C-.11,55.08.23,51.26.05,47.47c-.29-5.92.79-11.58,3.06-16.99,1.96-4.68,4.44-9.06,7.7-13.05,3.1-3.79,6.69-6.92,10.69-9.59,5.27-3.51,11.06-5.86,17.33-7.09,5.43-1.07,10.89-.8,16.27-.38,4.98.39,9.71,2.33,14.25,4.57,4.94,2.44,9.38,5.58,13.15,9.54,4.87,5.1,8.45,11.03,10.88,17.69,1.64,4.49,2.4,9.04,2.17,13.8-.1,2.06-.12,4.13,0,6.19.28,4.89-1.23,9.39-3,13.8-2.47,6.16-6.05,11.62-10.79,16.27-5.76,5.65-12.59,9.51-20.27,12-4.49,1.46-9.04,1.41-13.63,1.36Zm-23.88-36.9l-.02-.02c.2,1.3.2,2.64.68,3.89,3.02,7.94,9.06,12.19,17.18,13.53,4.92.81,9.93.75,14.8-.61,4.66-1.3,8.59-3.76,11.56-7.66,3.21-4.22,4.1-9.19,4.69-14.26.23-1.94-.08-2.2-2.05-2.2-6.89,0-13.77,0-20.66,0-.58,0-1.17-.04-1.73-.14-.44-.08-.75-.41-.77-.89-.02-.51.34-.74.76-.89.77-.27,1.56-.25,2.36-.25,5.93,0,11.87,0,17.8,0,2.18,0,2.7-.91,1.68-2.88-2.56-4.94-8.85-5.96-12.88-2.1-1.35,1.29-1.48,1.29-2.66-.26-1.83-2.41-4.43-3.6-7.28-3.61-3.98-.02-7.1,1.84-8.87,5.59-.27.57-.36,1.26-1.2,1.28-.73.01-3.82-1.92-4-2.6-1.28-4.73-3.02-9.33-4.08-14.14-.42-1.9-1.21-3.73-2.96-4.92-1.07-.73-1.97-.6-2.77.41-1.18,1.49-1.14,3.17-.56,4.82,1.72,4.93,3.42,9.87,5.35,14.72.65,1.63-.19,2.71-.55,4.04-.51,1.87-1.85,1.92-3.35,1.84-.93-.05-1.32.31-1.22,1.33.14,1.37.09,2.75.12,4.13.02.69-.01,1.4.64,1.87Z"/></g><path class="cls-1" d="m73.67,51.95c-2.79,14.94-11.41,26.09-25.47,26.09s-25.47-11.68-25.47-26.09c0,0,50.98-.18,50.95,0Z"/></g></g></svg>