<?xml version="1.0" encoding="UTF-8"?><svg id="Layer_2" xmlns="http://www.w3.org/2000/svg" viewBox="0 0 206.32 206.33"><defs><style>.cls-1{isolation:isolate;}.cls-2{fill:#4f6d82;stroke-width:0px;}</style></defs><g id="Layer_1-2"><g class="cls-1"><path class="cls-2" d="m103.35,206.33C44.56,206.36.03,161.99,0,103.35-.03,44.56,44.34.03,102.97,0c58.79-.03,103.32,44.34,103.35,102.97.03,58.79-44.33,103.32-102.97,103.35Zm89.96-104.22c-.18-31.7-17.91-61.36-46.77-78.25-9.79-5.73-10.54-5.55-13.68,5.63-7.44,26.47-21.9,47.42-45.94,61.67-11.53,6.83-18.97,17.65-23.31,30.33-5.79,16.89.58,29.58,17.55,35.72,6.75,2.44,13.57,4.76,20.15,7.59,10,4.31,17.36,11.17,17.91,22.8.24,4.94,2.02,4.57,5.72,3.51,35.68-10.17,68.58-52.88,68.38-88.99Z"/><path class="cls-2" d="m160.36,137.15c0,11.4-12.32,28.82-23.22,32.83-1.61.59-3.52,1.47-4.65-.22-1.6-2.37.72-3.61,2.19-4.85,4.92-4.15,10.42-7.57,14.15-13.13,5.62-8.37,6.93-16.63,1.87-25.85-4.25-7.74-8.8-15.4-11.27-24-.56-1.95-1.17-4.12,1.04-5.46,1.47-.89,2.46.33,3.4,1.35,3.08,3.37,16.48,35.27,16.48,39.33Z"/><path class="cls-2" d="m127.42,162.44c-.31,2.86-2.83,2.95-4.37,1.84-8.58-6.23-18.5-7.77-28.61-9.15-3.01-.41-5.76-2.53-5.97-6.12-.21-3.51,2.08-5.61,4.97-7.04,6.26-3.11,33.62,13.21,33.98,20.48Z"/></g></g></svg>